<svg xmlns="http://www.w3.org/2000/svg" xmlns:xlink="http://www.w3.org/1999/xlink" width="1200" zoomAndPan="magnify" viewBox="0 0 900 472.499986" height="630" preserveAspectRatio="xMidYMid meet" version="1.0"><defs><g/><clipPath id="9a4053a2c5"><path d="M 0.476562 0 L 899.523438 0 L 899.523438 472 L 0.476562 472 Z M 0.476562 0 " clip-rule="nonzero"/></clipPath><clipPath id="09f1059e28"><path d="M 580 141.601562 L 592 141.601562 L 592 169 L 580 169 Z M 580 141.601562 " clip-rule="nonzero"/></clipPath><clipPath id="5817ef9b8b"><path d="M 640 217 L 667.609375 217 L 667.609375 229 L 640 229 Z M 640 217 " clip-rule="nonzero"/></clipPath><clipPath id="0f5ad62c6d"><path d="M 404 207 L 617 207 L 617 330.398438 L 404 330.398438 Z M 404 207 " clip-rule="nonzero"/></clipPath></defs><g clip-path="url(#9a4053a2c5)"><path fill="#ffffff" d="M 0.476562 0 L 899.523438 0 L 899.523438 472 L 0.476562 472 Z M 0.476562 0 " fill-opacity="1" fill-rule="nonzero"/><path fill="#e5e7eb" d="M 0.476562 0 L 899.523438 0 L 899.523438 472 L 0.476562 472 Z M 0.476562 0 " fill-opacity="1" fill-rule="nonzero"/></g><g fill="#ffc1b2" fill-opacity="0.302"><g transform="translate(595.794783, 300.954619)"><g><path d="M 65.378906 -2 L 64.179688 -2.957031 C 62.902344 -3.996094 61.78125 -5.273438 60.902344 -6.714844 L 50.992188 -22.539062 C 50.671875 -23.019531 50.511719 -23.578125 50.671875 -24.21875 C 50.832031 -24.777344 51.152344 -25.257812 51.710938 -25.65625 C 53.710938 -27.09375 55.46875 -28.691406 56.90625 -30.53125 C 59.066406 -33.167969 60.742188 -36.207031 61.863281 -39.5625 C 62.980469 -42.921875 63.621094 -46.4375 63.621094 -50.113281 C 63.621094 -53.789062 62.980469 -57.386719 61.863281 -60.742188 C 60.742188 -64.101562 59.066406 -67.136719 56.90625 -69.855469 C 54.347656 -72.890625 51.230469 -75.289062 47.714844 -76.96875 C 44.117188 -78.566406 40.203125 -79.445312 36.046875 -79.445312 L 10.789062 -79.445312 C 10.230469 -79.445312 9.832031 -79.207031 9.671875 -78.726562 C 9.429688 -78.246094 9.511719 -77.847656 9.910156 -77.449219 C 11.191406 -76.007812 11.910156 -74.332031 11.910156 -72.414062 L 11.910156 -6.875 C 11.910156 -5.035156 11.269531 -3.4375 10.070312 -2.078125 C 9.589844 -1.597656 9.511719 -1.199219 9.75 -0.71875 C 9.910156 -0.238281 10.308594 0 10.949219 0 L 28.851562 0 C 29.332031 0 29.730469 -0.160156 29.890625 -0.640625 C 30.050781 -1.117188 30.050781 -1.519531 29.730469 -2 C 28.375 -3.4375 27.734375 -5.035156 27.734375 -6.953125 L 27.734375 -18.621094 C 27.734375 -19.261719 27.894531 -19.820312 28.375 -20.300781 C 28.851562 -20.78125 29.414062 -21.019531 30.050781 -21.019531 L 31.96875 -21.019531 C 32.769531 -21.019531 33.488281 -20.621094 33.96875 -19.902344 L 43.800781 -4.078125 C 44.199219 -3.355469 44.117188 -2.71875 43.640625 -2.078125 L 43.558594 -2 C 43.238281 -1.519531 43.238281 -1.117188 43.480469 -0.640625 C 43.640625 -0.160156 44.039062 0 44.597656 0 L 64.820312 0 C 65.378906 0 65.699219 -0.238281 65.859375 -0.71875 C 66.019531 -1.199219 65.859375 -1.597656 65.378906 -2 Z M 44.679688 -40.601562 C 42.679688 -38.042969 39.804688 -36.84375 36.046875 -36.84375 L 30.050781 -36.84375 C 29.414062 -36.84375 28.851562 -37.003906 28.375 -37.484375 C 27.894531 -37.964844 27.734375 -38.523438 27.734375 -39.164062 L 27.734375 -61.222656 C 27.734375 -61.863281 27.894531 -62.421875 28.375 -62.902344 C 28.851562 -63.378906 29.414062 -63.621094 30.050781 -63.621094 L 36.046875 -63.621094 C 38.921875 -63.621094 41.082031 -62.980469 42.679688 -61.703125 C 44.277344 -60.421875 45.398438 -58.984375 46.195312 -57.386719 C 46.917969 -55.789062 47.394531 -54.269531 47.554688 -52.832031 C 47.714844 -51.390625 47.796875 -50.433594 47.796875 -50.113281 C 47.796875 -48.195312 47.476562 -46.4375 46.996094 -44.839844 C 46.4375 -43.238281 45.636719 -41.800781 44.679688 -40.601562 Z M 44.679688 -40.601562 "/></g></g></g><g fill="#ffc1b2" fill-opacity="0.302"><g transform="translate(671.3185, 300.954619)"><g><path d="M 27.652344 -7.035156 L 27.652344 -72.414062 C 27.652344 -74.332031 28.292969 -76.007812 29.574219 -77.449219 C 29.8125 -77.847656 29.8125 -78.246094 29.652344 -78.726562 C 29.414062 -79.207031 29.011719 -79.445312 28.535156 -79.445312 L 10.871094 -79.445312 C 10.308594 -79.445312 9.910156 -79.207031 9.75 -78.726562 C 9.511719 -78.246094 9.511719 -77.847656 9.832031 -77.449219 C 11.109375 -76.007812 11.828125 -74.332031 11.828125 -72.414062 L 11.828125 -7.035156 C 11.828125 -5.113281 11.109375 -3.4375 9.832031 -2 C 9.511719 -1.519531 9.511719 -1.117188 9.75 -0.640625 C 9.910156 -0.160156 10.308594 0 10.871094 0 L 28.535156 0 C 29.011719 0 29.414062 -0.160156 29.652344 -0.640625 C 29.8125 -1.117188 29.8125 -1.519531 29.574219 -2 C 28.933594 -2.636719 28.453125 -3.4375 28.132812 -4.316406 C 27.8125 -5.195312 27.652344 -6.074219 27.652344 -7.035156 Z M 27.652344 -7.035156 "/></g></g></g><g fill="#ffc1b2" fill-opacity="0.302"><g transform="translate(710.798627, 300.954619)"><g><path d="M 29.332031 -17.664062 L 55.546875 -72.574219 C 55.867188 -73.210938 55.949219 -73.851562 55.949219 -74.570312 C 55.867188 -75.210938 55.628906 -75.847656 55.308594 -76.410156 C 54.988281 -76.886719 54.507812 -77.367188 53.949219 -77.6875 C 53.308594 -78.007812 52.671875 -78.246094 51.953125 -78.246094 L 11.589844 -78.246094 C 9.75 -78.246094 8.152344 -78.804688 6.875 -80.085938 C 6.394531 -80.484375 5.996094 -80.566406 5.515625 -80.40625 C 5.035156 -80.164062 4.796875 -79.765625 4.796875 -79.207031 L 4.796875 -61.304688 C 4.796875 -60.742188 4.957031 -60.34375 5.433594 -60.183594 C 5.914062 -60.023438 6.3125 -60.105469 6.792969 -60.421875 C 8.230469 -61.703125 9.910156 -62.421875 11.828125 -62.421875 L 29.890625 -62.421875 C 30.613281 -62.421875 31.171875 -62.101562 31.570312 -61.460938 C 31.96875 -60.824219 32.050781 -60.105469 31.730469 -59.464844 L 5.515625 -4.476562 C 5.195312 -3.835938 5.035156 -3.117188 5.113281 -2.476562 C 5.113281 -1.839844 5.355469 -1.199219 5.675781 -0.71875 C 5.996094 -0.160156 6.472656 0.320312 7.113281 0.640625 C 7.671875 0.960938 8.3125 1.117188 9.113281 1.117188 L 48.195312 1.117188 C 50.113281 1.117188 51.792969 1.839844 53.230469 3.117188 C 53.550781 3.515625 54.03125 3.597656 54.507812 3.355469 C 54.988281 3.195312 55.226562 2.796875 55.226562 2.316406 L 55.226562 -15.824219 C 55.226562 -16.304688 54.988281 -16.625 54.507812 -16.863281 C 54.03125 -17.023438 53.550781 -16.945312 53.230469 -16.625 C 51.792969 -15.34375 50.113281 -14.707031 48.195312 -14.707031 L 31.171875 -14.707031 C 30.371094 -14.707031 29.8125 -14.945312 29.414062 -15.585938 C 29.011719 -16.226562 29.011719 -16.863281 29.332031 -17.664062 Z M 29.332031 -17.664062 "/></g></g></g><g fill="#ffc1b2" fill-opacity="0.302"><g transform="translate(771.537278, 300.954619)"><g><path d="M 58.1875 -80.003906 C 56.828125 -78.726562 55.226562 -78.167969 53.46875 -78.167969 L 10.871094 -78.167969 C 10.308594 -78.167969 9.910156 -77.925781 9.75 -77.449219 C 9.511719 -76.96875 9.511719 -76.570312 9.832031 -76.167969 L 10.070312 -75.929688 C 11.347656 -74.492188 11.988281 -72.8125 11.988281 -70.894531 L 11.988281 -5.996094 C 11.988281 -5.035156 11.828125 -4.15625 11.507812 -3.277344 C 11.191406 -2.398438 10.710938 -1.597656 10.070312 -0.960938 L 9.832031 -0.71875 C 9.511719 -0.238281 9.511719 0.160156 9.75 0.640625 C 9.910156 1.117188 10.308594 1.277344 10.871094 1.277344 L 53.46875 1.277344 C 55.226562 1.277344 56.828125 1.917969 58.1875 3.117188 C 58.585938 3.515625 59.066406 3.597656 59.542969 3.355469 C 60.023438 3.195312 60.34375 2.796875 60.34375 2.15625 L 60.34375 -15.664062 C 60.34375 -16.144531 60.105469 -16.542969 59.625 -16.785156 C 59.144531 -16.945312 58.664062 -16.863281 58.34375 -16.542969 C 56.90625 -15.1875 55.226562 -14.546875 53.308594 -14.546875 L 29.8125 -14.546875 C 29.253906 -14.546875 28.773438 -14.707031 28.375 -15.105469 C 27.972656 -15.425781 27.8125 -15.90625 27.8125 -16.542969 L 27.8125 -28.535156 C 27.8125 -29.09375 27.972656 -29.574219 28.375 -29.972656 C 28.773438 -30.292969 29.253906 -30.53125 29.8125 -30.53125 L 36.84375 -30.53125 C 38.765625 -30.53125 40.441406 -29.8125 41.882812 -28.535156 C 42.28125 -28.214844 42.679688 -28.214844 43.160156 -28.453125 C 43.640625 -28.691406 43.878906 -29.09375 43.878906 -29.574219 L 43.878906 -47.316406 C 43.878906 -47.796875 43.640625 -48.113281 43.160156 -48.355469 C 42.679688 -48.59375 42.28125 -48.59375 41.882812 -48.355469 C 40.441406 -46.996094 38.765625 -46.355469 36.84375 -46.355469 L 29.8125 -46.355469 C 29.253906 -46.355469 28.773438 -46.515625 28.375 -46.917969 C 27.972656 -47.234375 27.8125 -47.714844 27.8125 -48.355469 L 27.8125 -60.34375 C 27.8125 -60.902344 27.972656 -61.382812 28.375 -61.78125 C 28.773438 -62.101562 29.253906 -62.34375 29.8125 -62.34375 L 53.308594 -62.34375 C 55.226562 -62.34375 56.90625 -61.621094 58.34375 -60.34375 C 58.664062 -59.945312 59.144531 -59.863281 59.625 -60.105469 C 60.105469 -60.265625 60.34375 -60.664062 60.34375 -61.222656 L 60.34375 -79.125 C 60.34375 -79.605469 60.023438 -80.003906 59.542969 -80.246094 C 59.066406 -80.40625 58.585938 -80.324219 58.1875 -80.003906 Z M 58.1875 -80.003906 "/></g></g></g><g fill="#ffc1b2" fill-opacity="0.502"><g transform="translate(597.910093, 301.85251)"><g><path d="M 65.378906 -2 L 64.179688 -2.957031 C 62.902344 -3.996094 61.78125 -5.273438 60.902344 -6.714844 L 50.992188 -22.539062 C 50.671875 -23.019531 50.511719 -23.578125 50.671875 -24.21875 C 50.832031 -24.777344 51.152344 -25.257812 51.710938 -25.65625 C 53.710938 -27.09375 55.46875 -28.691406 56.90625 -30.53125 C 59.066406 -33.167969 60.742188 -36.207031 61.863281 -39.5625 C 62.980469 -42.921875 63.621094 -46.4375 63.621094 -50.113281 C 63.621094 -53.789062 62.980469 -57.386719 61.863281 -60.742188 C 60.742188 -64.101562 59.066406 -67.136719 56.90625 -69.855469 C 54.347656 -72.890625 51.230469 -75.289062 47.714844 -76.96875 C 44.117188 -78.566406 40.203125 -79.445312 36.046875 -79.445312 L 10.789062 -79.445312 C 10.230469 -79.445312 9.832031 -79.207031 9.671875 -78.726562 C 9.429688 -78.246094 9.511719 -77.847656 9.910156 -77.449219 C 11.191406 -76.007812 11.910156 -74.332031 11.910156 -72.414062 L 11.910156 -6.875 C 11.910156 -5.035156 11.269531 -3.4375 10.070312 -2.078125 C 9.589844 -1.597656 9.511719 -1.199219 9.75 -0.71875 C 9.910156 -0.238281 10.308594 0 10.949219 0 L 28.851562 0 C 29.332031 0 29.730469 -0.160156 29.890625 -0.640625 C 30.050781 -1.117188 30.050781 -1.519531 29.730469 -2 C 28.375 -3.4375 27.734375 -5.035156 27.734375 -6.953125 L 27.734375 -18.621094 C 27.734375 -19.261719 27.894531 -19.820312 28.375 -20.300781 C 28.851562 -20.78125 29.414062 -21.019531 30.050781 -21.019531 L 31.96875 -21.019531 C 32.769531 -21.019531 33.488281 -20.621094 33.96875 -19.902344 L 43.800781 -4.078125 C 44.199219 -3.355469 44.117188 -2.71875 43.640625 -2.078125 L 43.558594 -2 C 43.238281 -1.519531 43.238281 -1.117188 43.480469 -0.640625 C 43.640625 -0.160156 44.039062 0 44.597656 0 L 64.820312 0 C 65.378906 0 65.699219 -0.238281 65.859375 -0.71875 C 66.019531 -1.199219 65.859375 -1.597656 65.378906 -2 Z M 44.679688 -40.601562 C 42.679688 -38.042969 39.804688 -36.84375 36.046875 -36.84375 L 30.050781 -36.84375 C 29.414062 -36.84375 28.851562 -37.003906 28.375 -37.484375 C 27.894531 -37.964844 27.734375 -38.523438 27.734375 -39.164062 L 27.734375 -61.222656 C 27.734375 -61.863281 27.894531 -62.421875 28.375 -62.902344 C 28.851562 -63.378906 29.414062 -63.621094 30.050781 -63.621094 L 36.046875 -63.621094 C 38.921875 -63.621094 41.082031 -62.980469 42.679688 -61.703125 C 44.277344 -60.421875 45.398438 -58.984375 46.195312 -57.386719 C 46.917969 -55.789062 47.394531 -54.269531 47.554688 -52.832031 C 47.714844 -51.390625 47.796875 -50.433594 47.796875 -50.113281 C 47.796875 -48.195312 47.476562 -46.4375 46.996094 -44.839844 C 46.4375 -43.238281 45.636719 -41.800781 44.679688 -40.601562 Z M 44.679688 -40.601562 "/></g></g></g><g fill="#ffc1b2" fill-opacity="0.502"><g transform="translate(673.43381, 301.85251)"><g><path d="M 27.652344 -7.035156 L 27.652344 -72.414062 C 27.652344 -74.332031 28.292969 -76.007812 29.574219 -77.449219 C 29.8125 -77.847656 29.8125 -78.246094 29.652344 -78.726562 C 29.414062 -79.207031 29.011719 -79.445312 28.535156 -79.445312 L 10.871094 -79.445312 C 10.308594 -79.445312 9.910156 -79.207031 9.75 -78.726562 C 9.511719 -78.246094 9.511719 -77.847656 9.832031 -77.449219 C 11.109375 -76.007812 11.828125 -74.332031 11.828125 -72.414062 L 11.828125 -7.035156 C 11.828125 -5.113281 11.109375 -3.4375 9.832031 -2 C 9.511719 -1.519531 9.511719 -1.117188 9.75 -0.640625 C 9.910156 -0.160156 10.308594 0 10.871094 0 L 28.535156 0 C 29.011719 0 29.414062 -0.160156 29.652344 -0.640625 C 29.8125 -1.117188 29.8125 -1.519531 29.574219 -2 C 28.933594 -2.636719 28.453125 -3.4375 28.132812 -4.316406 C 27.8125 -5.195312 27.652344 -6.074219 27.652344 -7.035156 Z M 27.652344 -7.035156 "/></g></g></g><g fill="#ffc1b2" fill-opacity="0.502"><g transform="translate(712.913937, 301.85251)"><g><path d="M 29.332031 -17.664062 L 55.546875 -72.574219 C 55.867188 -73.210938 55.949219 -73.851562 55.949219 -74.570312 C 55.867188 -75.210938 55.628906 -75.847656 55.308594 -76.410156 C 54.988281 -76.886719 54.507812 -77.367188 53.949219 -77.6875 C 53.308594 -78.007812 52.671875 -78.246094 51.953125 -78.246094 L 11.589844 -78.246094 C 9.75 -78.246094 8.152344 -78.804688 6.875 -80.085938 C 6.394531 -80.484375 5.996094 -80.566406 5.515625 -80.40625 C 5.035156 -80.164062 4.796875 -79.765625 4.796875 -79.207031 L 4.796875 -61.304688 C 4.796875 -60.742188 4.957031 -60.34375 5.433594 -60.183594 C 5.914062 -60.023438 6.3125 -60.105469 6.792969 -60.421875 C 8.230469 -61.703125 9.910156 -62.421875 11.828125 -62.421875 L 29.890625 -62.421875 C 30.613281 -62.421875 31.171875 -62.101562 31.570312 -61.460938 C 31.96875 -60.824219 32.050781 -60.105469 31.730469 -59.464844 L 5.515625 -4.476562 C 5.195312 -3.835938 5.035156 -3.117188 5.113281 -2.476562 C 5.113281 -1.839844 5.355469 -1.199219 5.675781 -0.71875 C 5.996094 -0.160156 6.472656 0.320312 7.113281 0.640625 C 7.671875 0.960938 8.3125 1.117188 9.113281 1.117188 L 48.195312 1.117188 C 50.113281 1.117188 51.792969 1.839844 53.230469 3.117188 C 53.550781 3.515625 54.03125 3.597656 54.507812 3.355469 C 54.988281 3.195312 55.226562 2.796875 55.226562 2.316406 L 55.226562 -15.824219 C 55.226562 -16.304688 54.988281 -16.625 54.507812 -16.863281 C 54.03125 -17.023438 53.550781 -16.945312 53.230469 -16.625 C 51.792969 -15.34375 50.113281 -14.707031 48.195312 -14.707031 L 31.171875 -14.707031 C 30.371094 -14.707031 29.8125 -14.945312 29.414062 -15.585938 C 29.011719 -16.226562 29.011719 -16.863281 29.332031 -17.664062 Z M 29.332031 -17.664062 "/></g></g></g><g fill="#ffc1b2" fill-opacity="0.502"><g transform="translate(773.652588, 301.85251)"><g><path d="M 58.1875 -80.003906 C 56.828125 -78.726562 55.226562 -78.167969 53.46875 -78.167969 L 10.871094 -78.167969 C 10.308594 -78.167969 9.910156 -77.925781 9.75 -77.449219 C 9.511719 -76.96875 9.511719 -76.570312 9.832031 -76.167969 L 10.070312 -75.929688 C 11.347656 -74.492188 11.988281 -72.8125 11.988281 -70.894531 L 11.988281 -5.996094 C 11.988281 -5.035156 11.828125 -4.15625 11.507812 -3.277344 C 11.191406 -2.398438 10.710938 -1.597656 10.070312 -0.960938 L 9.832031 -0.71875 C 9.511719 -0.238281 9.511719 0.160156 9.75 0.640625 C 9.910156 1.117188 10.308594 1.277344 10.871094 1.277344 L 53.46875 1.277344 C 55.226562 1.277344 56.828125 1.917969 58.1875 3.117188 C 58.585938 3.515625 59.066406 3.597656 59.542969 3.355469 C 60.023438 3.195312 60.34375 2.796875 60.34375 2.15625 L 60.34375 -15.664062 C 60.34375 -16.144531 60.105469 -16.542969 59.625 -16.785156 C 59.144531 -16.945312 58.664062 -16.863281 58.34375 -16.542969 C 56.90625 -15.1875 55.226562 -14.546875 53.308594 -14.546875 L 29.8125 -14.546875 C 29.253906 -14.546875 28.773438 -14.707031 28.375 -15.105469 C 27.972656 -15.425781 27.8125 -15.90625 27.8125 -16.542969 L 27.8125 -28.535156 C 27.8125 -29.09375 27.972656 -29.574219 28.375 -29.972656 C 28.773438 -30.292969 29.253906 -30.53125 29.8125 -30.53125 L 36.84375 -30.53125 C 38.765625 -30.53125 40.441406 -29.8125 41.882812 -28.535156 C 42.28125 -28.214844 42.679688 -28.214844 43.160156 -28.453125 C 43.640625 -28.691406 43.878906 -29.09375 43.878906 -29.574219 L 43.878906 -47.316406 C 43.878906 -47.796875 43.640625 -48.113281 43.160156 -48.355469 C 42.679688 -48.59375 42.28125 -48.59375 41.882812 -48.355469 C 40.441406 -46.996094 38.765625 -46.355469 36.84375 -46.355469 L 29.8125 -46.355469 C 29.253906 -46.355469 28.773438 -46.515625 28.375 -46.917969 C 27.972656 -47.234375 27.8125 -47.714844 27.8125 -48.355469 L 27.8125 -60.34375 C 27.8125 -60.902344 27.972656 -61.382812 28.375 -61.78125 C 28.773438 -62.101562 29.253906 -62.34375 29.8125 -62.34375 L 53.308594 -62.34375 C 55.226562 -62.34375 56.90625 -61.621094 58.34375 -60.34375 C 58.664062 -59.945312 59.144531 -59.863281 59.625 -60.105469 C 60.105469 -60.265625 60.34375 -60.664062 60.34375 -61.222656 L 60.34375 -79.125 C 60.34375 -79.605469 60.023438 -80.003906 59.542969 -80.246094 C 59.066406 -80.40625 58.585938 -80.324219 58.1875 -80.003906 Z M 58.1875 -80.003906 "/></g></g></g><g fill="#000000" fill-opacity="1"><g transform="translate(600.025432, 302.750417)"><g><path d="M 65.378906 -2 L 64.179688 -2.957031 C 62.902344 -3.996094 61.78125 -5.273438 60.902344 -6.714844 L 50.992188 -22.539062 C 50.671875 -23.019531 50.511719 -23.578125 50.671875 -24.21875 C 50.832031 -24.777344 51.152344 -25.257812 51.710938 -25.65625 C 53.710938 -27.09375 55.46875 -28.691406 56.90625 -30.53125 C 59.066406 -33.167969 60.742188 -36.207031 61.863281 -39.5625 C 62.980469 -42.921875 63.621094 -46.4375 63.621094 -50.113281 C 63.621094 -53.789062 62.980469 -57.386719 61.863281 -60.742188 C 60.742188 -64.101562 59.066406 -67.136719 56.90625 -69.855469 C 54.347656 -72.890625 51.230469 -75.289062 47.714844 -76.96875 C 44.117188 -78.566406 40.203125 -79.445312 36.046875 -79.445312 L 10.789062 -79.445312 C 10.230469 -79.445312 9.832031 -79.207031 9.671875 -78.726562 C 9.429688 -78.246094 9.511719 -77.847656 9.910156 -77.449219 C 11.191406 -76.007812 11.910156 -74.332031 11.910156 -72.414062 L 11.910156 -6.875 C 11.910156 -5.035156 11.269531 -3.4375 10.070312 -2.078125 C 9.589844 -1.597656 9.511719 -1.199219 9.75 -0.71875 C 9.910156 -0.238281 10.308594 0 10.949219 0 L 28.851562 0 C 29.332031 0 29.730469 -0.160156 29.890625 -0.640625 C 30.050781 -1.117188 30.050781 -1.519531 29.730469 -2 C 28.375 -3.4375 27.734375 -5.035156 27.734375 -6.953125 L 27.734375 -18.621094 C 27.734375 -19.261719 27.894531 -19.820312 28.375 -20.300781 C 28.851562 -20.78125 29.414062 -21.019531 30.050781 -21.019531 L 31.96875 -21.019531 C 32.769531 -21.019531 33.488281 -20.621094 33.96875 -19.902344 L 43.800781 -4.078125 C 44.199219 -3.355469 44.117188 -2.71875 43.640625 -2.078125 L 43.558594 -2 C 43.238281 -1.519531 43.238281 -1.117188 43.480469 -0.640625 C 43.640625 -0.160156 44.039062 0 44.597656 0 L 64.820312 0 C 65.378906 0 65.699219 -0.238281 65.859375 -0.71875 C 66.019531 -1.199219 65.859375 -1.597656 65.378906 -2 Z M 44.679688 -40.601562 C 42.679688 -38.042969 39.804688 -36.84375 36.046875 -36.84375 L 30.050781 -36.84375 C 29.414062 -36.84375 28.851562 -37.003906 28.375 -37.484375 C 27.894531 -37.964844 27.734375 -38.523438 27.734375 -39.164062 L 27.734375 -61.222656 C 27.734375 -61.863281 27.894531 -62.421875 28.375 -62.902344 C 28.851562 -63.378906 29.414062 -63.621094 30.050781 -63.621094 L 36.046875 -63.621094 C 38.921875 -63.621094 41.082031 -62.980469 42.679688 -61.703125 C 44.277344 -60.421875 45.398438 -58.984375 46.195312 -57.386719 C 46.917969 -55.789062 47.394531 -54.269531 47.554688 -52.832031 C 47.714844 -51.390625 47.796875 -50.433594 47.796875 -50.113281 C 47.796875 -48.195312 47.476562 -46.4375 46.996094 -44.839844 C 46.4375 -43.238281 45.636719 -41.800781 44.679688 -40.601562 Z M 44.679688 -40.601562 "/></g></g></g><g fill="#000000" fill-opacity="1"><g transform="translate(675.549149, 302.750417)"><g><path d="M 27.652344 -7.035156 L 27.652344 -72.414062 C 27.652344 -74.332031 28.292969 -76.007812 29.574219 -77.449219 C 29.8125 -77.847656 29.8125 -78.246094 29.652344 -78.726562 C 29.414062 -79.207031 29.011719 -79.445312 28.535156 -79.445312 L 10.871094 -79.445312 C 10.308594 -79.445312 9.910156 -79.207031 9.75 -78.726562 C 9.511719 -78.246094 9.511719 -77.847656 9.832031 -77.449219 C 11.109375 -76.007812 11.828125 -74.332031 11.828125 -72.414062 L 11.828125 -7.035156 C 11.828125 -5.113281 11.109375 -3.4375 9.832031 -2 C 9.511719 -1.519531 9.511719 -1.117188 9.75 -0.640625 C 9.910156 -0.160156 10.308594 0 10.871094 0 L 28.535156 0 C 29.011719 0 29.414062 -0.160156 29.652344 -0.640625 C 29.8125 -1.117188 29.8125 -1.519531 29.574219 -2 C 28.933594 -2.636719 28.453125 -3.4375 28.132812 -4.316406 C 27.8125 -5.195312 27.652344 -6.074219 27.652344 -7.035156 Z M 27.652344 -7.035156 "/></g></g></g><g fill="#000000" fill-opacity="1"><g transform="translate(715.029276, 302.750417)"><g><path d="M 29.332031 -17.664062 L 55.546875 -72.574219 C 55.867188 -73.210938 55.949219 -73.851562 55.949219 -74.570312 C 55.867188 -75.210938 55.628906 -75.847656 55.308594 -76.410156 C 54.988281 -76.886719 54.507812 -77.367188 53.949219 -77.6875 C 53.308594 -78.007812 52.671875 -78.246094 51.953125 -78.246094 L 11.589844 -78.246094 C 9.75 -78.246094 8.152344 -78.804688 6.875 -80.085938 C 6.394531 -80.484375 5.996094 -80.566406 5.515625 -80.40625 C 5.035156 -80.164062 4.796875 -79.765625 4.796875 -79.207031 L 4.796875 -61.304688 C 4.796875 -60.742188 4.957031 -60.34375 5.433594 -60.183594 C 5.914062 -60.023438 6.3125 -60.105469 6.792969 -60.421875 C 8.230469 -61.703125 9.910156 -62.421875 11.828125 -62.421875 L 29.890625 -62.421875 C 30.613281 -62.421875 31.171875 -62.101562 31.570312 -61.460938 C 31.96875 -60.824219 32.050781 -60.105469 31.730469 -59.464844 L 5.515625 -4.476562 C 5.195312 -3.835938 5.035156 -3.117188 5.113281 -2.476562 C 5.113281 -1.839844 5.355469 -1.199219 5.675781 -0.71875 C 5.996094 -0.160156 6.472656 0.320312 7.113281 0.640625 C 7.671875 0.960938 8.3125 1.117188 9.113281 1.117188 L 48.195312 1.117188 C 50.113281 1.117188 51.792969 1.839844 53.230469 3.117188 C 53.550781 3.515625 54.03125 3.597656 54.507812 3.355469 C 54.988281 3.195312 55.226562 2.796875 55.226562 2.316406 L 55.226562 -15.824219 C 55.226562 -16.304688 54.988281 -16.625 54.507812 -16.863281 C 54.03125 -17.023438 53.550781 -16.945312 53.230469 -16.625 C 51.792969 -15.34375 50.113281 -14.707031 48.195312 -14.707031 L 31.171875 -14.707031 C 30.371094 -14.707031 29.8125 -14.945312 29.414062 -15.585938 C 29.011719 -16.226562 29.011719 -16.863281 29.332031 -17.664062 Z M 29.332031 -17.664062 "/></g></g></g><g fill="#000000" fill-opacity="1"><g transform="translate(775.767927, 302.750417)"><g><path d="M 58.1875 -80.003906 C 56.828125 -78.726562 55.226562 -78.167969 53.46875 -78.167969 L 10.871094 -78.167969 C 10.308594 -78.167969 9.910156 -77.925781 9.75 -77.449219 C 9.511719 -76.96875 9.511719 -76.570312 9.832031 -76.167969 L 10.070312 -75.929688 C 11.347656 -74.492188 11.988281 -72.8125 11.988281 -70.894531 L 11.988281 -5.996094 C 11.988281 -5.035156 11.828125 -4.15625 11.507812 -3.277344 C 11.191406 -2.398438 10.710938 -1.597656 10.070312 -0.960938 L 9.832031 -0.71875 C 9.511719 -0.238281 9.511719 0.160156 9.75 0.640625 C 9.910156 1.117188 10.308594 1.277344 10.871094 1.277344 L 53.46875 1.277344 C 55.226562 1.277344 56.828125 1.917969 58.1875 3.117188 C 58.585938 3.515625 59.066406 3.597656 59.542969 3.355469 C 60.023438 3.195312 60.34375 2.796875 60.34375 2.15625 L 60.34375 -15.664062 C 60.34375 -16.144531 60.105469 -16.542969 59.625 -16.785156 C 59.144531 -16.945312 58.664062 -16.863281 58.34375 -16.542969 C 56.90625 -15.1875 55.226562 -14.546875 53.308594 -14.546875 L 29.8125 -14.546875 C 29.253906 -14.546875 28.773438 -14.707031 28.375 -15.105469 C 27.972656 -15.425781 27.8125 -15.90625 27.8125 -16.542969 L 27.8125 -28.535156 C 27.8125 -29.09375 27.972656 -29.574219 28.375 -29.972656 C 28.773438 -30.292969 29.253906 -30.53125 29.8125 -30.53125 L 36.84375 -30.53125 C 38.765625 -30.53125 40.441406 -29.8125 41.882812 -28.535156 C 42.28125 -28.214844 42.679688 -28.214844 43.160156 -28.453125 C 43.640625 -28.691406 43.878906 -29.09375 43.878906 -29.574219 L 43.878906 -47.316406 C 43.878906 -47.796875 43.640625 -48.113281 43.160156 -48.355469 C 42.679688 -48.59375 42.28125 -48.59375 41.882812 -48.355469 C 40.441406 -46.996094 38.765625 -46.355469 36.84375 -46.355469 L 29.8125 -46.355469 C 29.253906 -46.355469 28.773438 -46.515625 28.375 -46.917969 C 27.972656 -47.234375 27.8125 -47.714844 27.8125 -48.355469 L 27.8125 -60.34375 C 27.8125 -60.902344 27.972656 -61.382812 28.375 -61.78125 C 28.773438 -62.101562 29.253906 -62.34375 29.8125 -62.34375 L 53.308594 -62.34375 C 55.226562 -62.34375 56.90625 -61.621094 58.34375 -60.34375 C 58.664062 -59.945312 59.144531 -59.863281 59.625 -60.105469 C 60.105469 -60.265625 60.34375 -60.664062 60.34375 -61.222656 L 60.34375 -79.125 C 60.34375 -79.605469 60.023438 -80.003906 59.542969 -80.246094 C 59.066406 -80.40625 58.585938 -80.324219 58.1875 -80.003906 Z M 58.1875 -80.003906 "/></g></g></g><path fill="#ffcc00" d="M 627.347656 223.1875 C 627.347656 224.550781 627.28125 225.90625 627.148438 227.261719 C 627.015625 228.613281 626.816406 229.957031 626.550781 231.292969 C 626.285156 232.628906 625.953125 233.945312 625.558594 235.25 C 625.164062 236.550781 624.703125 237.828125 624.183594 239.085938 C 623.664062 240.34375 623.082031 241.574219 622.4375 242.773438 C 621.796875 243.972656 621.097656 245.136719 620.339844 246.269531 C 619.585938 247.402344 618.773438 248.492188 617.910156 249.542969 C 617.046875 250.59375 616.132812 251.601562 615.171875 252.566406 C 614.207031 253.527344 613.203125 254.4375 612.148438 255.300781 C 611.097656 256.164062 610.003906 256.976562 608.871094 257.730469 C 607.738281 258.488281 606.574219 259.1875 605.371094 259.828125 C 604.171875 260.46875 602.941406 261.050781 601.683594 261.570312 C 600.425781 262.089844 599.148438 262.546875 597.84375 262.945312 C 596.539062 263.339844 595.222656 263.667969 593.886719 263.933594 C 592.550781 264.199219 591.207031 264.398438 589.851562 264.53125 C 588.496094 264.664062 587.136719 264.734375 585.777344 264.734375 C 584.414062 264.734375 583.054688 264.664062 581.699219 264.53125 C 580.347656 264.398438 579 264.199219 577.664062 263.933594 C 576.332031 263.667969 575.011719 263.339844 573.707031 262.945312 C 572.40625 262.546875 571.125 262.089844 569.867188 261.570312 C 568.609375 261.050781 567.378906 260.46875 566.179688 259.828125 C 564.976562 259.1875 563.8125 258.488281 562.679688 257.730469 C 561.546875 256.976562 560.457031 256.164062 559.402344 255.300781 C 558.351562 254.4375 557.34375 253.527344 556.378906 252.566406 C 555.417969 251.601562 554.503906 250.59375 553.640625 249.542969 C 552.777344 248.492188 551.964844 247.402344 551.210938 246.269531 C 550.453125 245.136719 549.753906 243.972656 549.113281 242.773438 C 548.472656 241.574219 547.890625 240.34375 547.367188 239.085938 C 546.847656 237.828125 546.390625 236.550781 545.992188 235.25 C 545.597656 233.945312 545.269531 232.628906 545.003906 231.292969 C 544.738281 229.957031 544.539062 228.613281 544.402344 227.261719 C 544.269531 225.90625 544.203125 224.550781 544.203125 223.1875 C 544.203125 221.828125 544.269531 220.46875 544.402344 219.117188 C 544.539062 217.761719 544.738281 216.417969 545.003906 215.082031 C 545.269531 213.75 545.597656 212.429688 545.992188 211.128906 C 546.390625 209.828125 546.847656 208.546875 547.367188 207.289062 C 547.890625 206.03125 548.472656 204.804688 549.113281 203.605469 C 549.753906 202.40625 550.453125 201.238281 551.210938 200.109375 C 551.964844 198.976562 552.777344 197.886719 553.640625 196.832031 C 554.503906 195.78125 555.417969 194.773438 556.378906 193.8125 C 557.34375 192.851562 558.351562 191.9375 559.402344 191.074219 C 560.457031 190.210938 561.546875 189.402344 562.679688 188.644531 C 563.8125 187.890625 564.976562 187.191406 566.179688 186.550781 C 567.378906 185.910156 568.609375 185.328125 569.867188 184.804688 C 571.125 184.285156 572.40625 183.828125 573.707031 183.433594 C 575.011719 183.039062 576.332031 182.707031 577.664062 182.441406 C 579 182.175781 580.347656 181.976562 581.699219 181.84375 C 583.054688 181.710938 584.414062 181.644531 585.777344 181.644531 C 587.136719 181.644531 588.496094 181.710938 589.851562 181.84375 C 591.207031 181.976562 592.550781 182.175781 593.886719 182.441406 C 595.222656 182.707031 596.539062 183.039062 597.84375 183.433594 C 599.148438 183.828125 600.425781 184.285156 601.683594 184.804688 C 602.941406 185.328125 604.171875 185.910156 605.371094 186.550781 C 606.574219 187.191406 607.738281 187.890625 608.871094 188.644531 C 610.003906 189.402344 611.097656 190.210938 612.148438 191.074219 C 613.203125 191.9375 614.207031 192.851562 615.171875 193.8125 C 616.132812 194.773438 617.046875 195.78125 617.910156 196.832031 C 618.773438 197.886719 619.585938 198.976562 620.339844 200.109375 C 621.097656 201.238281 621.796875 202.40625 622.4375 203.605469 C 623.082031 204.804688 623.664062 206.03125 624.183594 207.289062 C 624.703125 208.546875 625.164062 209.828125 625.558594 211.128906 C 625.953125 212.429688 626.285156 213.75 626.550781 215.082031 C 626.816406 216.417969 627.015625 217.761719 627.148438 219.117188 C 627.28125 220.46875 627.347656 221.828125 627.347656 223.1875 Z M 627.347656 223.1875 " fill-opacity="1" fill-rule="nonzero"/><g clip-path="url(#09f1059e28)"><path fill="#ffcc00" d="M 585.777344 141.582031 C 582.757812 141.582031 580.332031 144.492188 580.332031 148.109375 L 580.332031 162.257812 C 580.332031 165.871094 582.757812 168.785156 585.777344 168.785156 C 588.792969 168.785156 591.21875 165.871094 591.21875 162.257812 L 591.21875 148.109375 C 591.21875 144.492188 588.792969 141.582031 585.777344 141.582031 Z M 585.777344 141.582031 " fill-opacity="1" fill-rule="nonzero"/></g><path fill="#ffcc00" d="M 643.519531 165.484375 C 641.386719 163.351562 637.609375 163.695312 635.050781 166.253906 L 625.039062 176.257812 C 622.480469 178.8125 622.136719 182.589844 624.269531 184.71875 C 626.402344 186.851562 630.179688 186.507812 632.738281 183.949219 L 642.75 173.949219 C 645.308594 171.390625 645.652344 167.617188 643.519531 165.484375 Z M 643.519531 165.484375 " fill-opacity="1" fill-rule="nonzero"/><g clip-path="url(#5817ef9b8b)"><path fill="#ffcc00" d="M 667.4375 223.1875 C 667.4375 220.175781 664.523438 217.75 660.902344 217.75 L 646.75 217.75 C 643.128906 217.75 640.214844 220.175781 640.214844 223.1875 C 640.214844 226.203125 643.128906 228.628906 646.75 228.628906 L 660.902344 228.628906 C 664.523438 228.628906 667.4375 226.203125 667.4375 223.1875 Z M 667.4375 223.1875 " fill-opacity="1" fill-rule="nonzero"/></g><path fill="#ffcc00" d="M 643.519531 280.894531 C 645.652344 278.761719 645.308594 274.988281 642.75 272.429688 L 632.738281 262.429688 C 630.179688 259.871094 626.402344 259.527344 624.269531 261.660156 C 622.136719 263.789062 622.480469 267.566406 625.039062 270.121094 L 635.050781 280.125 C 637.609375 282.683594 641.386719 283.023438 643.519531 280.894531 Z M 643.519531 280.894531 " fill-opacity="1" fill-rule="nonzero"/><path fill="#ffcc00" d="M 585.777344 304.796875 C 588.792969 304.796875 591.21875 301.882812 591.21875 298.269531 L 591.21875 284.121094 C 591.21875 280.503906 588.792969 277.59375 585.777344 277.59375 C 582.757812 277.59375 580.332031 280.503906 580.332031 284.121094 L 580.332031 298.269531 C 580.332031 301.882812 582.757812 304.796875 585.777344 304.796875 Z M 585.777344 304.796875 " fill-opacity="1" fill-rule="nonzero"/><path fill="#ffcc00" d="M 528.03125 280.894531 C 530.164062 283.023438 533.941406 282.683594 536.5 280.125 L 546.511719 270.121094 C 549.070312 267.566406 549.414062 263.789062 547.28125 261.660156 C 545.148438 259.527344 541.371094 259.871094 538.8125 262.429688 L 528.800781 272.429688 C 526.242188 274.988281 525.898438 278.761719 528.03125 280.894531 Z M 528.03125 280.894531 " fill-opacity="1" fill-rule="nonzero"/><path fill="#ffcc00" d="M 504.113281 223.1875 C 504.113281 226.203125 507.027344 228.628906 510.648438 228.628906 L 524.800781 228.628906 C 528.421875 228.628906 531.335938 226.203125 531.335938 223.1875 C 531.335938 220.175781 528.421875 217.75 524.800781 217.75 L 510.648438 217.75 C 507.027344 217.75 504.113281 220.175781 504.113281 223.1875 Z M 504.113281 223.1875 " fill-opacity="1" fill-rule="nonzero"/><path fill="#ffcc00" d="M 528.03125 165.484375 C 525.898438 167.617188 526.242188 171.390625 528.800781 173.949219 L 538.8125 183.949219 C 541.371094 186.507812 545.148438 186.851562 547.28125 184.71875 C 549.414062 182.589844 549.070312 178.8125 546.511719 176.257812 L 536.5 166.253906 C 533.941406 163.695312 530.164062 163.351562 528.03125 165.484375 Z M 528.03125 165.484375 " fill-opacity="1" fill-rule="nonzero"/><g clip-path="url(#0f5ad62c6d)"><path fill="#c6e0f7" d="M 482.453125 207.15625 C 480.902344 207.15625 479.355469 207.230469 477.8125 207.382812 C 476.269531 207.535156 474.734375 207.761719 473.214844 208.066406 C 471.695312 208.367188 470.191406 208.742188 468.707031 209.195312 C 467.222656 209.644531 465.765625 210.164062 464.332031 210.757812 C 462.902344 211.351562 461.5 212.011719 460.132812 212.742188 C 458.765625 213.472656 457.4375 214.269531 456.148438 215.128906 C 454.859375 215.992188 453.613281 216.914062 452.414062 217.894531 C 451.21875 218.878906 450.070312 219.917969 448.972656 221.015625 C 447.875 222.109375 446.835938 223.257812 445.851562 224.453125 C 444.871094 225.652344 443.945312 226.894531 443.085938 228.183594 C 442.222656 229.472656 441.425781 230.800781 440.695312 232.167969 C 439.964844 233.535156 439.304688 234.933594 438.710938 236.363281 C 438.117188 237.796875 437.59375 239.253906 437.144531 240.734375 C 436.695312 242.21875 436.320312 243.71875 436.015625 245.238281 C 435.714844 246.757812 435.484375 248.289062 435.335938 249.832031 C 435.183594 251.375 435.105469 252.921875 435.105469 254.46875 C 435.117188 256.222656 435.222656 257.96875 435.429688 259.707031 C 417.574219 262.910156 404.175781 277.324219 404.175781 294.726562 C 404.175781 314.496094 421.46875 330.410156 442.945312 330.410156 L 581.28125 330.410156 C 601.066406 330.410156 616.992188 315.617188 616.992188 297.238281 C 616.992188 278.980469 601.261719 264.265625 581.652344 264.082031 C 581.496094 262.855469 581.285156 261.640625 581.019531 260.4375 C 580.753906 259.230469 580.4375 258.039062 580.0625 256.863281 C 579.691406 255.6875 579.265625 254.53125 578.789062 253.390625 C 578.308594 252.253906 577.78125 251.140625 577.203125 250.046875 C 576.625 248.957031 576 247.894531 575.324219 246.863281 C 574.652344 245.828125 573.933594 244.828125 573.167969 243.859375 C 572.402344 242.890625 571.597656 241.957031 570.746094 241.058594 C 569.898438 240.164062 569.011719 239.308594 568.082031 238.492188 C 567.15625 237.675781 566.195312 236.902344 565.199219 236.175781 C 564.203125 235.445312 563.175781 234.761719 562.117188 234.125 C 561.058594 233.488281 559.976562 232.902344 558.863281 232.363281 C 557.753906 231.824219 556.621094 231.339844 555.464844 230.902344 C 554.308594 230.464844 553.136719 230.082031 551.949219 229.753906 C 550.757812 229.421875 549.554688 229.148438 548.339844 228.925781 C 547.125 228.703125 545.902344 228.535156 544.671875 228.425781 C 543.445312 228.3125 542.210938 228.257812 540.976562 228.257812 C 535.078125 228.265625 529.445312 229.492188 524.078125 231.929688 C 523.066406 230.0625 521.933594 228.273438 520.683594 226.5625 C 519.429688 224.851562 518.070312 223.230469 516.601562 221.699219 C 515.128906 220.167969 513.5625 218.746094 511.902344 217.425781 C 510.242188 216.105469 508.5 214.902344 506.675781 213.820312 C 504.851562 212.734375 502.964844 211.773438 501.011719 210.945312 C 499.058594 210.113281 497.058594 209.414062 495.011719 208.851562 C 492.96875 208.289062 490.894531 207.867188 488.789062 207.582031 C 486.6875 207.296875 484.574219 207.15625 482.453125 207.15625 Z M 482.453125 207.15625 " fill-opacity="1" fill-rule="nonzero"/></g><g fill="#ffc1b2" fill-opacity="0.302"><g transform="translate(18.500962, 300.954619)"><g><path d="M 105.101562 -79.445312 L 87.917969 -79.445312 L 87.917969 -79.367188 L 87.917969 -79.445312 L 86.398438 -79.445312 C 85.839844 -79.445312 85.441406 -79.207031 85.28125 -78.726562 C 85.039062 -78.246094 85.039062 -77.847656 85.359375 -77.449219 L 85.679688 -77.128906 C 86.480469 -76.167969 86.71875 -75.210938 86.398438 -74.089844 L 73.210938 -28.453125 C 73.050781 -27.972656 72.730469 -27.734375 72.253906 -27.734375 C 71.773438 -27.734375 71.453125 -27.972656 71.292969 -28.453125 L 65.539062 -48.515625 C 65.140625 -49.632812 65.378906 -50.671875 66.257812 -51.550781 L 66.417969 -51.710938 C 66.65625 -52.113281 66.65625 -52.511719 66.417969 -52.992188 C 66.179688 -53.390625 65.777344 -53.628906 65.300781 -53.628906 L 45.796875 -53.628906 C 45.316406 -53.628906 44.917969 -53.390625 44.679688 -52.992188 C 44.4375 -52.511719 44.4375 -52.113281 44.757812 -51.710938 L 44.917969 -51.550781 C 45.71875 -50.59375 45.957031 -49.632812 45.636719 -48.515625 L 39.882812 -28.453125 C 39.722656 -27.972656 39.402344 -27.734375 38.921875 -27.734375 C 38.363281 -27.734375 38.042969 -27.972656 37.964844 -28.453125 L 24.777344 -74.089844 C 24.457031 -75.210938 24.695312 -76.167969 25.496094 -77.128906 L 25.816406 -77.449219 C 26.054688 -77.847656 26.054688 -78.246094 25.894531 -78.726562 C 25.65625 -79.207031 25.257812 -79.445312 24.777344 -79.445312 L 6.074219 -79.445312 C 5.515625 -79.445312 5.113281 -79.207031 4.957031 -78.726562 C 4.714844 -78.246094 4.714844 -77.847656 5.035156 -77.449219 C 7.113281 -75.53125 8.550781 -73.132812 9.351562 -70.414062 L 28.214844 -5.195312 C 28.535156 -3.996094 28.214844 -2.957031 27.414062 -2 C 27.09375 -1.519531 27.09375 -1.117188 27.335938 -0.640625 C 27.574219 -0.160156 27.972656 0 28.453125 0 L 49.3125 0 C 49.792969 0 50.113281 -0.160156 50.351562 -0.640625 C 50.59375 -1.117188 50.59375 -1.519531 50.351562 -2 L 50.273438 -2 C 49.472656 -2.796875 49.234375 -3.835938 49.554688 -5.035156 L 54.589844 -22.460938 C 54.75 -22.9375 55.070312 -23.179688 55.546875 -23.179688 C 56.027344 -23.179688 56.425781 -22.9375 56.585938 -22.460938 L 61.542969 -5.113281 C 61.863281 -3.917969 61.621094 -2.878906 60.824219 -2.078125 L 60.742188 -2 C 60.421875 -1.519531 60.421875 -1.117188 60.664062 -0.640625 C 60.902344 -0.160156 61.304688 0 61.78125 0 L 82.804688 0 C 83.28125 0 83.683594 -0.160156 83.839844 -0.640625 C 84 -1.117188 84 -1.519531 83.683594 -2 C 82.804688 -2.796875 82.5625 -3.835938 82.960938 -4.957031 L 101.824219 -70.496094 C 102.226562 -71.773438 102.785156 -73.050781 103.503906 -74.25 C 104.144531 -75.449219 105.023438 -76.488281 106.140625 -77.449219 C 106.378906 -77.847656 106.378906 -78.246094 106.222656 -78.726562 C 105.980469 -79.207031 105.582031 -79.445312 105.101562 -79.445312 Z M 105.101562 -79.445312 "/></g></g></g><g fill="#ffc1b2" fill-opacity="0.302"><g transform="translate(129.668686, 300.954619)"><g><path d="M 58.1875 -80.003906 C 56.828125 -78.726562 55.226562 -78.167969 53.46875 -78.167969 L 10.871094 -78.167969 C 10.308594 -78.167969 9.910156 -77.925781 9.75 -77.449219 C 9.511719 -76.96875 9.511719 -76.570312 9.832031 -76.167969 L 10.070312 -75.929688 C 11.347656 -74.492188 11.988281 -72.8125 11.988281 -70.894531 L 11.988281 -5.996094 C 11.988281 -5.035156 11.828125 -4.15625 11.507812 -3.277344 C 11.191406 -2.398438 10.710938 -1.597656 10.070312 -0.960938 L 9.832031 -0.71875 C 9.511719 -0.238281 9.511719 0.160156 9.75 0.640625 C 9.910156 1.117188 10.308594 1.277344 10.871094 1.277344 L 53.46875 1.277344 C 55.226562 1.277344 56.828125 1.917969 58.1875 3.117188 C 58.585938 3.515625 59.066406 3.597656 59.542969 3.355469 C 60.023438 3.195312 60.34375 2.796875 60.34375 2.15625 L 60.34375 -15.664062 C 60.34375 -16.144531 60.105469 -16.542969 59.625 -16.785156 C 59.144531 -16.945312 58.664062 -16.863281 58.34375 -16.542969 C 56.90625 -15.1875 55.226562 -14.546875 53.308594 -14.546875 L 29.8125 -14.546875 C 29.253906 -14.546875 28.773438 -14.707031 28.375 -15.105469 C 27.972656 -15.425781 27.8125 -15.90625 27.8125 -16.542969 L 27.8125 -28.535156 C 27.8125 -29.09375 27.972656 -29.574219 28.375 -29.972656 C 28.773438 -30.292969 29.253906 -30.53125 29.8125 -30.53125 L 36.84375 -30.53125 C 38.765625 -30.53125 40.441406 -29.8125 41.882812 -28.535156 C 42.28125 -28.214844 42.679688 -28.214844 43.160156 -28.453125 C 43.640625 -28.691406 43.878906 -29.09375 43.878906 -29.574219 L 43.878906 -47.316406 C 43.878906 -47.796875 43.640625 -48.113281 43.160156 -48.355469 C 42.679688 -48.59375 42.28125 -48.59375 41.882812 -48.355469 C 40.441406 -46.996094 38.765625 -46.355469 36.84375 -46.355469 L 29.8125 -46.355469 C 29.253906 -46.355469 28.773438 -46.515625 28.375 -46.917969 C 27.972656 -47.234375 27.8125 -47.714844 27.8125 -48.355469 L 27.8125 -60.34375 C 27.8125 -60.902344 27.972656 -61.382812 28.375 -61.78125 C 28.773438 -62.101562 29.253906 -62.34375 29.8125 -62.34375 L 53.308594 -62.34375 C 55.226562 -62.34375 56.90625 -61.621094 58.34375 -60.34375 C 58.664062 -59.945312 59.144531 -59.863281 59.625 -60.105469 C 60.105469 -60.265625 60.34375 -60.664062 60.34375 -61.222656 L 60.34375 -79.125 C 60.34375 -79.605469 60.023438 -80.003906 59.542969 -80.246094 C 59.066406 -80.40625 58.585938 -80.324219 58.1875 -80.003906 Z M 58.1875 -80.003906 "/></g></g></g><g fill="#ffc1b2" fill-opacity="0.302"><g transform="translate(199.598054, 300.954619)"><g><path d="M 72.730469 -1.4375 C 72.730469 -1.757812 72.574219 -2 72.332031 -2.15625 C 70.496094 -3.675781 69.296875 -5.59375 68.65625 -7.992188 L 49.554688 -74.011719 C 49.152344 -75.289062 49.394531 -76.488281 50.351562 -77.449219 C 50.59375 -77.847656 50.59375 -78.246094 50.433594 -78.726562 C 50.191406 -79.207031 49.792969 -79.445312 49.3125 -79.445312 L 28.214844 -79.445312 C 27.734375 -79.445312 27.335938 -79.207031 27.09375 -78.726562 C 26.855469 -78.246094 26.855469 -77.847656 27.175781 -77.449219 C 28.132812 -76.488281 28.375 -75.289062 27.972656 -74.011719 L 8.953125 -7.914062 C 8.3125 -5.675781 7.035156 -3.757812 5.195312 -2.15625 C 4.957031 -1.917969 4.796875 -1.679688 4.796875 -1.4375 C 4.714844 -1.039062 4.796875 -0.71875 5.035156 -0.398438 C 5.273438 -0.078125 5.59375 0 6.074219 0 L 24.617188 0 C 25.097656 0 25.496094 -0.160156 25.65625 -0.640625 C 25.816406 -1.117188 25.816406 -1.519531 25.496094 -1.917969 C 24.535156 -2.878906 24.296875 -4.078125 24.617188 -5.355469 L 27.09375 -13.667969 C 27.335938 -14.546875 27.8125 -15.265625 28.535156 -15.746094 C 29.171875 -16.226562 29.972656 -16.542969 30.929688 -16.542969 L 46.675781 -16.542969 C 47.554688 -16.542969 48.355469 -16.226562 49.074219 -15.746094 C 49.714844 -15.265625 50.191406 -14.546875 50.511719 -13.667969 L 52.910156 -5.355469 C 53.230469 -4.078125 52.910156 -2.957031 52.113281 -2 L 52.113281 -1.917969 C 51.792969 -1.4375 51.792969 -1.039062 52.03125 -0.640625 C 52.191406 -0.160156 52.589844 0 53.152344 0 L 71.535156 0 C 71.933594 0 72.253906 -0.078125 72.492188 -0.398438 C 72.730469 -0.71875 72.8125 -1.039062 72.730469 -1.4375 Z M 43.957031 -32.371094 L 33.648438 -32.371094 C 33.328125 -32.371094 33.089844 -32.449219 32.929688 -32.691406 C 32.691406 -32.929688 32.609375 -33.25 32.769531 -33.570312 L 37.964844 -51.390625 C 38.042969 -51.792969 38.285156 -52.03125 38.765625 -52.03125 C 39.242188 -52.03125 39.484375 -51.792969 39.644531 -51.390625 L 44.757812 -33.570312 C 44.839844 -33.25 44.757812 -32.929688 44.597656 -32.691406 C 44.4375 -32.449219 44.199219 -32.371094 43.957031 -32.371094 Z M 43.957031 -32.371094 "/></g></g></g><g fill="#ffc1b2" fill-opacity="0.302"><g transform="translate(277.199661, 300.954619)"><g><path d="M 62.582031 -81.445312 L 62.5 -81.363281 C 61.0625 -80.085938 59.464844 -79.445312 57.625 -79.445312 L 16.542969 -79.445312 C 14.625 -79.445312 13.027344 -80.085938 11.589844 -81.363281 L 11.589844 -81.445312 C 11.109375 -81.683594 10.710938 -81.683594 10.230469 -81.445312 C 9.75 -81.203125 9.589844 -80.882812 9.589844 -80.40625 L 9.589844 -62.660156 C 9.589844 -62.101562 9.75 -61.703125 10.230469 -61.542969 C 10.710938 -61.304688 11.109375 -61.304688 11.589844 -61.621094 C 13.027344 -62.902344 14.625 -63.621094 16.542969 -63.621094 L 27.574219 -63.621094 C 27.972656 -63.621094 28.375 -63.460938 28.691406 -63.140625 C 29.011719 -62.820312 29.171875 -62.421875 29.171875 -62.023438 L 29.171875 -7.035156 C 29.171875 -5.113281 28.535156 -3.4375 27.253906 -2.078125 L 27.175781 -2 C 26.855469 -1.519531 26.855469 -1.117188 27.09375 -0.640625 C 27.253906 -0.160156 27.652344 0 28.214844 0 L 45.957031 0 C 46.4375 0 46.757812 -0.160156 46.996094 -0.640625 C 47.234375 -1.117188 47.234375 -1.519531 46.996094 -2 C 45.636719 -3.4375 44.996094 -5.035156 44.996094 -6.953125 L 44.996094 -62.023438 C 44.996094 -62.421875 45.15625 -62.820312 45.476562 -63.140625 C 45.796875 -63.460938 46.117188 -63.621094 46.597656 -63.621094 L 57.625 -63.621094 C 59.542969 -63.621094 61.144531 -62.902344 62.5 -61.621094 L 62.582031 -61.621094 C 62.980469 -61.304688 63.378906 -61.304688 63.859375 -61.542969 C 64.339844 -61.703125 64.578125 -62.101562 64.578125 -62.660156 L 64.578125 -80.40625 C 64.578125 -80.882812 64.339844 -81.203125 63.859375 -81.445312 C 63.378906 -81.683594 62.980469 -81.683594 62.582031 -81.445312 Z M 62.582031 -81.445312 "/></g></g></g><g fill="#ffc1b2" fill-opacity="0.302"><g transform="translate(351.364765, 300.954619)"><g><path d="M 69.457031 -2 L 69.296875 -2.078125 C 68.015625 -3.4375 67.457031 -5.035156 67.457031 -6.953125 L 67.457031 -72.492188 C 67.457031 -74.332031 68.015625 -75.929688 69.296875 -77.367188 L 69.457031 -77.449219 C 69.695312 -77.847656 69.695312 -78.246094 69.457031 -78.726562 C 69.214844 -79.207031 68.894531 -79.445312 68.417969 -79.445312 L 50.671875 -79.445312 C 50.191406 -79.445312 49.792969 -79.207031 49.554688 -78.726562 C 49.3125 -78.246094 49.3125 -77.847656 49.632812 -77.449219 L 49.714844 -77.449219 C 50.992188 -76.007812 51.632812 -74.332031 51.632812 -72.574219 L 51.632812 -50.273438 C 51.632812 -49.472656 51.3125 -48.835938 50.832031 -48.355469 C 50.273438 -47.875 49.632812 -47.636719 48.914062 -47.636719 L 30.371094 -47.636719 C 29.574219 -47.636719 28.933594 -47.875 28.453125 -48.355469 C 27.894531 -48.835938 27.652344 -49.472656 27.652344 -50.273438 L 27.652344 -72.652344 C 27.652344 -74.410156 28.292969 -76.007812 29.574219 -77.449219 C 29.8125 -77.847656 29.8125 -78.246094 29.652344 -78.726562 C 29.414062 -79.207031 29.011719 -79.445312 28.535156 -79.445312 L 10.871094 -79.445312 C 10.308594 -79.445312 9.910156 -79.207031 9.75 -78.726562 C 9.511719 -78.246094 9.511719 -77.847656 9.832031 -77.449219 L 9.992188 -77.289062 C 11.191406 -75.929688 11.828125 -74.332031 11.828125 -72.492188 L 11.828125 -7.035156 C 11.828125 -5.113281 11.191406 -3.4375 9.992188 -2.15625 L 9.832031 -2 C 9.511719 -1.519531 9.511719 -1.117188 9.75 -0.640625 C 9.910156 -0.160156 10.308594 0 10.871094 0 L 28.535156 0 C 29.011719 0 29.414062 -0.160156 29.652344 -0.640625 C 29.8125 -1.117188 29.8125 -1.519531 29.574219 -2 C 28.292969 -3.4375 27.652344 -5.035156 27.652344 -6.875 L 27.652344 -29.171875 C 27.652344 -29.890625 27.894531 -30.53125 28.453125 -31.011719 C 28.933594 -31.492188 29.574219 -31.808594 30.371094 -31.808594 L 48.914062 -31.808594 C 49.632812 -31.808594 50.273438 -31.492188 50.832031 -31.011719 C 51.3125 -30.53125 51.632812 -29.890625 51.632812 -29.171875 L 51.632812 -6.875 C 51.632812 -5.035156 50.992188 -3.4375 49.714844 -2.078125 L 49.632812 -2 C 49.3125 -1.519531 49.3125 -1.117188 49.554688 -0.640625 C 49.792969 -0.160156 50.191406 0 50.671875 0 L 68.417969 0 C 68.894531 0 69.214844 -0.160156 69.457031 -0.640625 C 69.695312 -1.117188 69.695312 -1.519531 69.457031 -2 Z M 69.457031 -2 "/></g></g></g><g fill="#ffc1b2" fill-opacity="0.302"><g transform="translate(430.644681, 300.954619)"><g><path d="M 58.1875 -80.003906 C 56.828125 -78.726562 55.226562 -78.167969 53.46875 -78.167969 L 10.871094 -78.167969 C 10.308594 -78.167969 9.910156 -77.925781 9.75 -77.449219 C 9.511719 -76.96875 9.511719 -76.570312 9.832031 -76.167969 L 10.070312 -75.929688 C 11.347656 -74.492188 11.988281 -72.8125 11.988281 -70.894531 L 11.988281 -5.996094 C 11.988281 -5.035156 11.828125 -4.15625 11.507812 -3.277344 C 11.191406 -2.398438 10.710938 -1.597656 10.070312 -0.960938 L 9.832031 -0.71875 C 9.511719 -0.238281 9.511719 0.160156 9.75 0.640625 C 9.910156 1.117188 10.308594 1.277344 10.871094 1.277344 L 53.46875 1.277344 C 55.226562 1.277344 56.828125 1.917969 58.1875 3.117188 C 58.585938 3.515625 59.066406 3.597656 59.542969 3.355469 C 60.023438 3.195312 60.34375 2.796875 60.34375 2.15625 L 60.34375 -15.664062 C 60.34375 -16.144531 60.105469 -16.542969 59.625 -16.785156 C 59.144531 -16.945312 58.664062 -16.863281 58.34375 -16.542969 C 56.90625 -15.1875 55.226562 -14.546875 53.308594 -14.546875 L 29.8125 -14.546875 C 29.253906 -14.546875 28.773438 -14.707031 28.375 -15.105469 C 27.972656 -15.425781 27.8125 -15.90625 27.8125 -16.542969 L 27.8125 -28.535156 C 27.8125 -29.09375 27.972656 -29.574219 28.375 -29.972656 C 28.773438 -30.292969 29.253906 -30.53125 29.8125 -30.53125 L 36.84375 -30.53125 C 38.765625 -30.53125 40.441406 -29.8125 41.882812 -28.535156 C 42.28125 -28.214844 42.679688 -28.214844 43.160156 -28.453125 C 43.640625 -28.691406 43.878906 -29.09375 43.878906 -29.574219 L 43.878906 -47.316406 C 43.878906 -47.796875 43.640625 -48.113281 43.160156 -48.355469 C 42.679688 -48.59375 42.28125 -48.59375 41.882812 -48.355469 C 40.441406 -46.996094 38.765625 -46.355469 36.84375 -46.355469 L 29.8125 -46.355469 C 29.253906 -46.355469 28.773438 -46.515625 28.375 -46.917969 C 27.972656 -47.234375 27.8125 -47.714844 27.8125 -48.355469 L 27.8125 -60.34375 C 27.8125 -60.902344 27.972656 -61.382812 28.375 -61.78125 C 28.773438 -62.101562 29.253906 -62.34375 29.8125 -62.34375 L 53.308594 -62.34375 C 55.226562 -62.34375 56.90625 -61.621094 58.34375 -60.34375 C 58.664062 -59.945312 59.144531 -59.863281 59.625 -60.105469 C 60.105469 -60.265625 60.34375 -60.664062 60.34375 -61.222656 L 60.34375 -79.125 C 60.34375 -79.605469 60.023438 -80.003906 59.542969 -80.246094 C 59.066406 -80.40625 58.585938 -80.324219 58.1875 -80.003906 Z M 58.1875 -80.003906 "/></g></g></g><g fill="#ffc1b2" fill-opacity="0.502"><g transform="translate(20.616286, 301.85251)"><g><path d="M 105.101562 -79.445312 L 87.917969 -79.445312 L 87.917969 -79.367188 L 87.917969 -79.445312 L 86.398438 -79.445312 C 85.839844 -79.445312 85.441406 -79.207031 85.28125 -78.726562 C 85.039062 -78.246094 85.039062 -77.847656 85.359375 -77.449219 L 85.679688 -77.128906 C 86.480469 -76.167969 86.71875 -75.210938 86.398438 -74.089844 L 73.210938 -28.453125 C 73.050781 -27.972656 72.730469 -27.734375 72.253906 -27.734375 C 71.773438 -27.734375 71.453125 -27.972656 71.292969 -28.453125 L 65.539062 -48.515625 C 65.140625 -49.632812 65.378906 -50.671875 66.257812 -51.550781 L 66.417969 -51.710938 C 66.65625 -52.113281 66.65625 -52.511719 66.417969 -52.992188 C 66.179688 -53.390625 65.777344 -53.628906 65.300781 -53.628906 L 45.796875 -53.628906 C 45.316406 -53.628906 44.917969 -53.390625 44.679688 -52.992188 C 44.4375 -52.511719 44.4375 -52.113281 44.757812 -51.710938 L 44.917969 -51.550781 C 45.71875 -50.59375 45.957031 -49.632812 45.636719 -48.515625 L 39.882812 -28.453125 C 39.722656 -27.972656 39.402344 -27.734375 38.921875 -27.734375 C 38.363281 -27.734375 38.042969 -27.972656 37.964844 -28.453125 L 24.777344 -74.089844 C 24.457031 -75.210938 24.695312 -76.167969 25.496094 -77.128906 L 25.816406 -77.449219 C 26.054688 -77.847656 26.054688 -78.246094 25.894531 -78.726562 C 25.65625 -79.207031 25.257812 -79.445312 24.777344 -79.445312 L 6.074219 -79.445312 C 5.515625 -79.445312 5.113281 -79.207031 4.957031 -78.726562 C 4.714844 -78.246094 4.714844 -77.847656 5.035156 -77.449219 C 7.113281 -75.53125 8.550781 -73.132812 9.351562 -70.414062 L 28.214844 -5.195312 C 28.535156 -3.996094 28.214844 -2.957031 27.414062 -2 C 27.09375 -1.519531 27.09375 -1.117188 27.335938 -0.640625 C 27.574219 -0.160156 27.972656 0 28.453125 0 L 49.3125 0 C 49.792969 0 50.113281 -0.160156 50.351562 -0.640625 C 50.59375 -1.117188 50.59375 -1.519531 50.351562 -2 L 50.273438 -2 C 49.472656 -2.796875 49.234375 -3.835938 49.554688 -5.035156 L 54.589844 -22.460938 C 54.75 -22.9375 55.070312 -23.179688 55.546875 -23.179688 C 56.027344 -23.179688 56.425781 -22.9375 56.585938 -22.460938 L 61.542969 -5.113281 C 61.863281 -3.917969 61.621094 -2.878906 60.824219 -2.078125 L 60.742188 -2 C 60.421875 -1.519531 60.421875 -1.117188 60.664062 -0.640625 C 60.902344 -0.160156 61.304688 0 61.78125 0 L 82.804688 0 C 83.28125 0 83.683594 -0.160156 83.839844 -0.640625 C 84 -1.117188 84 -1.519531 83.683594 -2 C 82.804688 -2.796875 82.5625 -3.835938 82.960938 -4.957031 L 101.824219 -70.496094 C 102.226562 -71.773438 102.785156 -73.050781 103.503906 -74.25 C 104.144531 -75.449219 105.023438 -76.488281 106.140625 -77.449219 C 106.378906 -77.847656 106.378906 -78.246094 106.222656 -78.726562 C 105.980469 -79.207031 105.582031 -79.445312 105.101562 -79.445312 Z M 105.101562 -79.445312 "/></g></g></g><g fill="#ffc1b2" fill-opacity="0.502"><g transform="translate(131.78401, 301.85251)"><g><path d="M 58.1875 -80.003906 C 56.828125 -78.726562 55.226562 -78.167969 53.46875 -78.167969 L 10.871094 -78.167969 C 10.308594 -78.167969 9.910156 -77.925781 9.75 -77.449219 C 9.511719 -76.96875 9.511719 -76.570312 9.832031 -76.167969 L 10.070312 -75.929688 C 11.347656 -74.492188 11.988281 -72.8125 11.988281 -70.894531 L 11.988281 -5.996094 C 11.988281 -5.035156 11.828125 -4.15625 11.507812 -3.277344 C 11.191406 -2.398438 10.710938 -1.597656 10.070312 -0.960938 L 9.832031 -0.71875 C 9.511719 -0.238281 9.511719 0.160156 9.75 0.640625 C 9.910156 1.117188 10.308594 1.277344 10.871094 1.277344 L 53.46875 1.277344 C 55.226562 1.277344 56.828125 1.917969 58.1875 3.117188 C 58.585938 3.515625 59.066406 3.597656 59.542969 3.355469 C 60.023438 3.195312 60.34375 2.796875 60.34375 2.15625 L 60.34375 -15.664062 C 60.34375 -16.144531 60.105469 -16.542969 59.625 -16.785156 C 59.144531 -16.945312 58.664062 -16.863281 58.34375 -16.542969 C 56.90625 -15.1875 55.226562 -14.546875 53.308594 -14.546875 L 29.8125 -14.546875 C 29.253906 -14.546875 28.773438 -14.707031 28.375 -15.105469 C 27.972656 -15.425781 27.8125 -15.90625 27.8125 -16.542969 L 27.8125 -28.535156 C 27.8125 -29.09375 27.972656 -29.574219 28.375 -29.972656 C 28.773438 -30.292969 29.253906 -30.53125 29.8125 -30.53125 L 36.84375 -30.53125 C 38.765625 -30.53125 40.441406 -29.8125 41.882812 -28.535156 C 42.28125 -28.214844 42.679688 -28.214844 43.160156 -28.453125 C 43.640625 -28.691406 43.878906 -29.09375 43.878906 -29.574219 L 43.878906 -47.316406 C 43.878906 -47.796875 43.640625 -48.113281 43.160156 -48.355469 C 42.679688 -48.59375 42.28125 -48.59375 41.882812 -48.355469 C 40.441406 -46.996094 38.765625 -46.355469 36.84375 -46.355469 L 29.8125 -46.355469 C 29.253906 -46.355469 28.773438 -46.515625 28.375 -46.917969 C 27.972656 -47.234375 27.8125 -47.714844 27.8125 -48.355469 L 27.8125 -60.34375 C 27.8125 -60.902344 27.972656 -61.382812 28.375 -61.78125 C 28.773438 -62.101562 29.253906 -62.34375 29.8125 -62.34375 L 53.308594 -62.34375 C 55.226562 -62.34375 56.90625 -61.621094 58.34375 -60.34375 C 58.664062 -59.945312 59.144531 -59.863281 59.625 -60.105469 C 60.105469 -60.265625 60.34375 -60.664062 60.34375 -61.222656 L 60.34375 -79.125 C 60.34375 -79.605469 60.023438 -80.003906 59.542969 -80.246094 C 59.066406 -80.40625 58.585938 -80.324219 58.1875 -80.003906 Z M 58.1875 -80.003906 "/></g></g></g><g fill="#ffc1b2" fill-opacity="0.502"><g transform="translate(201.713378, 301.85251)"><g><path d="M 72.730469 -1.4375 C 72.730469 -1.757812 72.574219 -2 72.332031 -2.15625 C 70.496094 -3.675781 69.296875 -5.59375 68.65625 -7.992188 L 49.554688 -74.011719 C 49.152344 -75.289062 49.394531 -76.488281 50.351562 -77.449219 C 50.59375 -77.847656 50.59375 -78.246094 50.433594 -78.726562 C 50.191406 -79.207031 49.792969 -79.445312 49.3125 -79.445312 L 28.214844 -79.445312 C 27.734375 -79.445312 27.335938 -79.207031 27.09375 -78.726562 C 26.855469 -78.246094 26.855469 -77.847656 27.175781 -77.449219 C 28.132812 -76.488281 28.375 -75.289062 27.972656 -74.011719 L 8.953125 -7.914062 C 8.3125 -5.675781 7.035156 -3.757812 5.195312 -2.15625 C 4.957031 -1.917969 4.796875 -1.679688 4.796875 -1.4375 C 4.714844 -1.039062 4.796875 -0.71875 5.035156 -0.398438 C 5.273438 -0.078125 5.59375 0 6.074219 0 L 24.617188 0 C 25.097656 0 25.496094 -0.160156 25.65625 -0.640625 C 25.816406 -1.117188 25.816406 -1.519531 25.496094 -1.917969 C 24.535156 -2.878906 24.296875 -4.078125 24.617188 -5.355469 L 27.09375 -13.667969 C 27.335938 -14.546875 27.8125 -15.265625 28.535156 -15.746094 C 29.171875 -16.226562 29.972656 -16.542969 30.929688 -16.542969 L 46.675781 -16.542969 C 47.554688 -16.542969 48.355469 -16.226562 49.074219 -15.746094 C 49.714844 -15.265625 50.191406 -14.546875 50.511719 -13.667969 L 52.910156 -5.355469 C 53.230469 -4.078125 52.910156 -2.957031 52.113281 -2 L 52.113281 -1.917969 C 51.792969 -1.4375 51.792969 -1.039062 52.03125 -0.640625 C 52.191406 -0.160156 52.589844 0 53.152344 0 L 71.535156 0 C 71.933594 0 72.253906 -0.078125 72.492188 -0.398438 C 72.730469 -0.71875 72.8125 -1.039062 72.730469 -1.4375 Z M 43.957031 -32.371094 L 33.648438 -32.371094 C 33.328125 -32.371094 33.089844 -32.449219 32.929688 -32.691406 C 32.691406 -32.929688 32.609375 -33.25 32.769531 -33.570312 L 37.964844 -51.390625 C 38.042969 -51.792969 38.285156 -52.03125 38.765625 -52.03125 C 39.242188 -52.03125 39.484375 -51.792969 39.644531 -51.390625 L 44.757812 -33.570312 C 44.839844 -33.25 44.757812 -32.929688 44.597656 -32.691406 C 44.4375 -32.449219 44.199219 -32.371094 43.957031 -32.371094 Z M 43.957031 -32.371094 "/></g></g></g><g fill="#ffc1b2" fill-opacity="0.502"><g transform="translate(279.314986, 301.85251)"><g><path d="M 62.582031 -81.445312 L 62.5 -81.363281 C 61.0625 -80.085938 59.464844 -79.445312 57.625 -79.445312 L 16.542969 -79.445312 C 14.625 -79.445312 13.027344 -80.085938 11.589844 -81.363281 L 11.589844 -81.445312 C 11.109375 -81.683594 10.710938 -81.683594 10.230469 -81.445312 C 9.75 -81.203125 9.589844 -80.882812 9.589844 -80.40625 L 9.589844 -62.660156 C 9.589844 -62.101562 9.75 -61.703125 10.230469 -61.542969 C 10.710938 -61.304688 11.109375 -61.304688 11.589844 -61.621094 C 13.027344 -62.902344 14.625 -63.621094 16.542969 -63.621094 L 27.574219 -63.621094 C 27.972656 -63.621094 28.375 -63.460938 28.691406 -63.140625 C 29.011719 -62.820312 29.171875 -62.421875 29.171875 -62.023438 L 29.171875 -7.035156 C 29.171875 -5.113281 28.535156 -3.4375 27.253906 -2.078125 L 27.175781 -2 C 26.855469 -1.519531 26.855469 -1.117188 27.09375 -0.640625 C 27.253906 -0.160156 27.652344 0 28.214844 0 L 45.957031 0 C 46.4375 0 46.757812 -0.160156 46.996094 -0.640625 C 47.234375 -1.117188 47.234375 -1.519531 46.996094 -2 C 45.636719 -3.4375 44.996094 -5.035156 44.996094 -6.953125 L 44.996094 -62.023438 C 44.996094 -62.421875 45.15625 -62.820312 45.476562 -63.140625 C 45.796875 -63.460938 46.117188 -63.621094 46.597656 -63.621094 L 57.625 -63.621094 C 59.542969 -63.621094 61.144531 -62.902344 62.5 -61.621094 L 62.582031 -61.621094 C 62.980469 -61.304688 63.378906 -61.304688 63.859375 -61.542969 C 64.339844 -61.703125 64.578125 -62.101562 64.578125 -62.660156 L 64.578125 -80.40625 C 64.578125 -80.882812 64.339844 -81.203125 63.859375 -81.445312 C 63.378906 -81.683594 62.980469 -81.683594 62.582031 -81.445312 Z M 62.582031 -81.445312 "/></g></g></g><g fill="#ffc1b2" fill-opacity="0.502"><g transform="translate(353.48009, 301.85251)"><g><path d="M 69.457031 -2 L 69.296875 -2.078125 C 68.015625 -3.4375 67.457031 -5.035156 67.457031 -6.953125 L 67.457031 -72.492188 C 67.457031 -74.332031 68.015625 -75.929688 69.296875 -77.367188 L 69.457031 -77.449219 C 69.695312 -77.847656 69.695312 -78.246094 69.457031 -78.726562 C 69.214844 -79.207031 68.894531 -79.445312 68.417969 -79.445312 L 50.671875 -79.445312 C 50.191406 -79.445312 49.792969 -79.207031 49.554688 -78.726562 C 49.3125 -78.246094 49.3125 -77.847656 49.632812 -77.449219 L 49.714844 -77.449219 C 50.992188 -76.007812 51.632812 -74.332031 51.632812 -72.574219 L 51.632812 -50.273438 C 51.632812 -49.472656 51.3125 -48.835938 50.832031 -48.355469 C 50.273438 -47.875 49.632812 -47.636719 48.914062 -47.636719 L 30.371094 -47.636719 C 29.574219 -47.636719 28.933594 -47.875 28.453125 -48.355469 C 27.894531 -48.835938 27.652344 -49.472656 27.652344 -50.273438 L 27.652344 -72.652344 C 27.652344 -74.410156 28.292969 -76.007812 29.574219 -77.449219 C 29.8125 -77.847656 29.8125 -78.246094 29.652344 -78.726562 C 29.414062 -79.207031 29.011719 -79.445312 28.535156 -79.445312 L 10.871094 -79.445312 C 10.308594 -79.445312 9.910156 -79.207031 9.75 -78.726562 C 9.511719 -78.246094 9.511719 -77.847656 9.832031 -77.449219 L 9.992188 -77.289062 C 11.191406 -75.929688 11.828125 -74.332031 11.828125 -72.492188 L 11.828125 -7.035156 C 11.828125 -5.113281 11.191406 -3.4375 9.992188 -2.15625 L 9.832031 -2 C 9.511719 -1.519531 9.511719 -1.117188 9.75 -0.640625 C 9.910156 -0.160156 10.308594 0 10.871094 0 L 28.535156 0 C 29.011719 0 29.414062 -0.160156 29.652344 -0.640625 C 29.8125 -1.117188 29.8125 -1.519531 29.574219 -2 C 28.292969 -3.4375 27.652344 -5.035156 27.652344 -6.875 L 27.652344 -29.171875 C 27.652344 -29.890625 27.894531 -30.53125 28.453125 -31.011719 C 28.933594 -31.492188 29.574219 -31.808594 30.371094 -31.808594 L 48.914062 -31.808594 C 49.632812 -31.808594 50.273438 -31.492188 50.832031 -31.011719 C 51.3125 -30.53125 51.632812 -29.890625 51.632812 -29.171875 L 51.632812 -6.875 C 51.632812 -5.035156 50.992188 -3.4375 49.714844 -2.078125 L 49.632812 -2 C 49.3125 -1.519531 49.3125 -1.117188 49.554688 -0.640625 C 49.792969 -0.160156 50.191406 0 50.671875 0 L 68.417969 0 C 68.894531 0 69.214844 -0.160156 69.457031 -0.640625 C 69.695312 -1.117188 69.695312 -1.519531 69.457031 -2 Z M 69.457031 -2 "/></g></g></g><g fill="#ffc1b2" fill-opacity="0.502"><g transform="translate(432.760005, 301.85251)"><g><path d="M 58.1875 -80.003906 C 56.828125 -78.726562 55.226562 -78.167969 53.46875 -78.167969 L 10.871094 -78.167969 C 10.308594 -78.167969 9.910156 -77.925781 9.75 -77.449219 C 9.511719 -76.96875 9.511719 -76.570312 9.832031 -76.167969 L 10.070312 -75.929688 C 11.347656 -74.492188 11.988281 -72.8125 11.988281 -70.894531 L 11.988281 -5.996094 C 11.988281 -5.035156 11.828125 -4.15625 11.507812 -3.277344 C 11.191406 -2.398438 10.710938 -1.597656 10.070312 -0.960938 L 9.832031 -0.71875 C 9.511719 -0.238281 9.511719 0.160156 9.75 0.640625 C 9.910156 1.117188 10.308594 1.277344 10.871094 1.277344 L 53.46875 1.277344 C 55.226562 1.277344 56.828125 1.917969 58.1875 3.117188 C 58.585938 3.515625 59.066406 3.597656 59.542969 3.355469 C 60.023438 3.195312 60.34375 2.796875 60.34375 2.15625 L 60.34375 -15.664062 C 60.34375 -16.144531 60.105469 -16.542969 59.625 -16.785156 C 59.144531 -16.945312 58.664062 -16.863281 58.34375 -16.542969 C 56.90625 -15.1875 55.226562 -14.546875 53.308594 -14.546875 L 29.8125 -14.546875 C 29.253906 -14.546875 28.773438 -14.707031 28.375 -15.105469 C 27.972656 -15.425781 27.8125 -15.90625 27.8125 -16.542969 L 27.8125 -28.535156 C 27.8125 -29.09375 27.972656 -29.574219 28.375 -29.972656 C 28.773438 -30.292969 29.253906 -30.53125 29.8125 -30.53125 L 36.84375 -30.53125 C 38.765625 -30.53125 40.441406 -29.8125 41.882812 -28.535156 C 42.28125 -28.214844 42.679688 -28.214844 43.160156 -28.453125 C 43.640625 -28.691406 43.878906 -29.09375 43.878906 -29.574219 L 43.878906 -47.316406 C 43.878906 -47.796875 43.640625 -48.113281 43.160156 -48.355469 C 42.679688 -48.59375 42.28125 -48.59375 41.882812 -48.355469 C 40.441406 -46.996094 38.765625 -46.355469 36.84375 -46.355469 L 29.8125 -46.355469 C 29.253906 -46.355469 28.773438 -46.515625 28.375 -46.917969 C 27.972656 -47.234375 27.8125 -47.714844 27.8125 -48.355469 L 27.8125 -60.34375 C 27.8125 -60.902344 27.972656 -61.382812 28.375 -61.78125 C 28.773438 -62.101562 29.253906 -62.34375 29.8125 -62.34375 L 53.308594 -62.34375 C 55.226562 -62.34375 56.90625 -61.621094 58.34375 -60.34375 C 58.664062 -59.945312 59.144531 -59.863281 59.625 -60.105469 C 60.105469 -60.265625 60.34375 -60.664062 60.34375 -61.222656 L 60.34375 -79.125 C 60.34375 -79.605469 60.023438 -80.003906 59.542969 -80.246094 C 59.066406 -80.40625 58.585938 -80.324219 58.1875 -80.003906 Z M 58.1875 -80.003906 "/></g></g></g><g fill="#000000" fill-opacity="1"><g transform="translate(22.731611, 302.750417)"><g><path d="M 105.101562 -79.445312 L 87.917969 -79.445312 L 87.917969 -79.367188 L 87.917969 -79.445312 L 86.398438 -79.445312 C 85.839844 -79.445312 85.441406 -79.207031 85.28125 -78.726562 C 85.039062 -78.246094 85.039062 -77.847656 85.359375 -77.449219 L 85.679688 -77.128906 C 86.480469 -76.167969 86.71875 -75.210938 86.398438 -74.089844 L 73.210938 -28.453125 C 73.050781 -27.972656 72.730469 -27.734375 72.253906 -27.734375 C 71.773438 -27.734375 71.453125 -27.972656 71.292969 -28.453125 L 65.539062 -48.515625 C 65.140625 -49.632812 65.378906 -50.671875 66.257812 -51.550781 L 66.417969 -51.710938 C 66.65625 -52.113281 66.65625 -52.511719 66.417969 -52.992188 C 66.179688 -53.390625 65.777344 -53.628906 65.300781 -53.628906 L 45.796875 -53.628906 C 45.316406 -53.628906 44.917969 -53.390625 44.679688 -52.992188 C 44.4375 -52.511719 44.4375 -52.113281 44.757812 -51.710938 L 44.917969 -51.550781 C 45.71875 -50.59375 45.957031 -49.632812 45.636719 -48.515625 L 39.882812 -28.453125 C 39.722656 -27.972656 39.402344 -27.734375 38.921875 -27.734375 C 38.363281 -27.734375 38.042969 -27.972656 37.964844 -28.453125 L 24.777344 -74.089844 C 24.457031 -75.210938 24.695312 -76.167969 25.496094 -77.128906 L 25.816406 -77.449219 C 26.054688 -77.847656 26.054688 -78.246094 25.894531 -78.726562 C 25.65625 -79.207031 25.257812 -79.445312 24.777344 -79.445312 L 6.074219 -79.445312 C 5.515625 -79.445312 5.113281 -79.207031 4.957031 -78.726562 C 4.714844 -78.246094 4.714844 -77.847656 5.035156 -77.449219 C 7.113281 -75.53125 8.550781 -73.132812 9.351562 -70.414062 L 28.214844 -5.195312 C 28.535156 -3.996094 28.214844 -2.957031 27.414062 -2 C 27.09375 -1.519531 27.09375 -1.117188 27.335938 -0.640625 C 27.574219 -0.160156 27.972656 0 28.453125 0 L 49.3125 0 C 49.792969 0 50.113281 -0.160156 50.351562 -0.640625 C 50.59375 -1.117188 50.59375 -1.519531 50.351562 -2 L 50.273438 -2 C 49.472656 -2.796875 49.234375 -3.835938 49.554688 -5.035156 L 54.589844 -22.460938 C 54.75 -22.9375 55.070312 -23.179688 55.546875 -23.179688 C 56.027344 -23.179688 56.425781 -22.9375 56.585938 -22.460938 L 61.542969 -5.113281 C 61.863281 -3.917969 61.621094 -2.878906 60.824219 -2.078125 L 60.742188 -2 C 60.421875 -1.519531 60.421875 -1.117188 60.664062 -0.640625 C 60.902344 -0.160156 61.304688 0 61.78125 0 L 82.804688 0 C 83.28125 0 83.683594 -0.160156 83.839844 -0.640625 C 84 -1.117188 84 -1.519531 83.683594 -2 C 82.804688 -2.796875 82.5625 -3.835938 82.960938 -4.957031 L 101.824219 -70.496094 C 102.226562 -71.773438 102.785156 -73.050781 103.503906 -74.25 C 104.144531 -75.449219 105.023438 -76.488281 106.140625 -77.449219 C 106.378906 -77.847656 106.378906 -78.246094 106.222656 -78.726562 C 105.980469 -79.207031 105.582031 -79.445312 105.101562 -79.445312 Z M 105.101562 -79.445312 "/></g></g></g><g fill="#000000" fill-opacity="1"><g transform="translate(133.899335, 302.750417)"><g><path d="M 58.1875 -80.003906 C 56.828125 -78.726562 55.226562 -78.167969 53.46875 -78.167969 L 10.871094 -78.167969 C 10.308594 -78.167969 9.910156 -77.925781 9.75 -77.449219 C 9.511719 -76.96875 9.511719 -76.570312 9.832031 -76.167969 L 10.070312 -75.929688 C 11.347656 -74.492188 11.988281 -72.8125 11.988281 -70.894531 L 11.988281 -5.996094 C 11.988281 -5.035156 11.828125 -4.15625 11.507812 -3.277344 C 11.191406 -2.398438 10.710938 -1.597656 10.070312 -0.960938 L 9.832031 -0.71875 C 9.511719 -0.238281 9.511719 0.160156 9.75 0.640625 C 9.910156 1.117188 10.308594 1.277344 10.871094 1.277344 L 53.46875 1.277344 C 55.226562 1.277344 56.828125 1.917969 58.1875 3.117188 C 58.585938 3.515625 59.066406 3.597656 59.542969 3.355469 C 60.023438 3.195312 60.34375 2.796875 60.34375 2.15625 L 60.34375 -15.664062 C 60.34375 -16.144531 60.105469 -16.542969 59.625 -16.785156 C 59.144531 -16.945312 58.664062 -16.863281 58.34375 -16.542969 C 56.90625 -15.1875 55.226562 -14.546875 53.308594 -14.546875 L 29.8125 -14.546875 C 29.253906 -14.546875 28.773438 -14.707031 28.375 -15.105469 C 27.972656 -15.425781 27.8125 -15.90625 27.8125 -16.542969 L 27.8125 -28.535156 C 27.8125 -29.09375 27.972656 -29.574219 28.375 -29.972656 C 28.773438 -30.292969 29.253906 -30.53125 29.8125 -30.53125 L 36.84375 -30.53125 C 38.765625 -30.53125 40.441406 -29.8125 41.882812 -28.535156 C 42.28125 -28.214844 42.679688 -28.214844 43.160156 -28.453125 C 43.640625 -28.691406 43.878906 -29.09375 43.878906 -29.574219 L 43.878906 -47.316406 C 43.878906 -47.796875 43.640625 -48.113281 43.160156 -48.355469 C 42.679688 -48.59375 42.28125 -48.59375 41.882812 -48.355469 C 40.441406 -46.996094 38.765625 -46.355469 36.84375 -46.355469 L 29.8125 -46.355469 C 29.253906 -46.355469 28.773438 -46.515625 28.375 -46.917969 C 27.972656 -47.234375 27.8125 -47.714844 27.8125 -48.355469 L 27.8125 -60.34375 C 27.8125 -60.902344 27.972656 -61.382812 28.375 -61.78125 C 28.773438 -62.101562 29.253906 -62.34375 29.8125 -62.34375 L 53.308594 -62.34375 C 55.226562 -62.34375 56.90625 -61.621094 58.34375 -60.34375 C 58.664062 -59.945312 59.144531 -59.863281 59.625 -60.105469 C 60.105469 -60.265625 60.34375 -60.664062 60.34375 -61.222656 L 60.34375 -79.125 C 60.34375 -79.605469 60.023438 -80.003906 59.542969 -80.246094 C 59.066406 -80.40625 58.585938 -80.324219 58.1875 -80.003906 Z M 58.1875 -80.003906 "/></g></g></g><g fill="#000000" fill-opacity="1"><g transform="translate(203.828703, 302.750417)"><g><path d="M 72.730469 -1.4375 C 72.730469 -1.757812 72.574219 -2 72.332031 -2.15625 C 70.496094 -3.675781 69.296875 -5.59375 68.65625 -7.992188 L 49.554688 -74.011719 C 49.152344 -75.289062 49.394531 -76.488281 50.351562 -77.449219 C 50.59375 -77.847656 50.59375 -78.246094 50.433594 -78.726562 C 50.191406 -79.207031 49.792969 -79.445312 49.3125 -79.445312 L 28.214844 -79.445312 C 27.734375 -79.445312 27.335938 -79.207031 27.09375 -78.726562 C 26.855469 -78.246094 26.855469 -77.847656 27.175781 -77.449219 C 28.132812 -76.488281 28.375 -75.289062 27.972656 -74.011719 L 8.953125 -7.914062 C 8.3125 -5.675781 7.035156 -3.757812 5.195312 -2.15625 C 4.957031 -1.917969 4.796875 -1.679688 4.796875 -1.4375 C 4.714844 -1.039062 4.796875 -0.71875 5.035156 -0.398438 C 5.273438 -0.078125 5.59375 0 6.074219 0 L 24.617188 0 C 25.097656 0 25.496094 -0.160156 25.65625 -0.640625 C 25.816406 -1.117188 25.816406 -1.519531 25.496094 -1.917969 C 24.535156 -2.878906 24.296875 -4.078125 24.617188 -5.355469 L 27.09375 -13.667969 C 27.335938 -14.546875 27.8125 -15.265625 28.535156 -15.746094 C 29.171875 -16.226562 29.972656 -16.542969 30.929688 -16.542969 L 46.675781 -16.542969 C 47.554688 -16.542969 48.355469 -16.226562 49.074219 -15.746094 C 49.714844 -15.265625 50.191406 -14.546875 50.511719 -13.667969 L 52.910156 -5.355469 C 53.230469 -4.078125 52.910156 -2.957031 52.113281 -2 L 52.113281 -1.917969 C 51.792969 -1.4375 51.792969 -1.039062 52.03125 -0.640625 C 52.191406 -0.160156 52.589844 0 53.152344 0 L 71.535156 0 C 71.933594 0 72.253906 -0.078125 72.492188 -0.398438 C 72.730469 -0.71875 72.8125 -1.039062 72.730469 -1.4375 Z M 43.957031 -32.371094 L 33.648438 -32.371094 C 33.328125 -32.371094 33.089844 -32.449219 32.929688 -32.691406 C 32.691406 -32.929688 32.609375 -33.25 32.769531 -33.570312 L 37.964844 -51.390625 C 38.042969 -51.792969 38.285156 -52.03125 38.765625 -52.03125 C 39.242188 -52.03125 39.484375 -51.792969 39.644531 -51.390625 L 44.757812 -33.570312 C 44.839844 -33.25 44.757812 -32.929688 44.597656 -32.691406 C 44.4375 -32.449219 44.199219 -32.371094 43.957031 -32.371094 Z M 43.957031 -32.371094 "/></g></g></g><g fill="#000000" fill-opacity="1"><g transform="translate(281.43031, 302.750417)"><g><path d="M 62.582031 -81.445312 L 62.5 -81.363281 C 61.0625 -80.085938 59.464844 -79.445312 57.625 -79.445312 L 16.542969 -79.445312 C 14.625 -79.445312 13.027344 -80.085938 11.589844 -81.363281 L 11.589844 -81.445312 C 11.109375 -81.683594 10.710938 -81.683594 10.230469 -81.445312 C 9.75 -81.203125 9.589844 -80.882812 9.589844 -80.40625 L 9.589844 -62.660156 C 9.589844 -62.101562 9.75 -61.703125 10.230469 -61.542969 C 10.710938 -61.304688 11.109375 -61.304688 11.589844 -61.621094 C 13.027344 -62.902344 14.625 -63.621094 16.542969 -63.621094 L 27.574219 -63.621094 C 27.972656 -63.621094 28.375 -63.460938 28.691406 -63.140625 C 29.011719 -62.820312 29.171875 -62.421875 29.171875 -62.023438 L 29.171875 -7.035156 C 29.171875 -5.113281 28.535156 -3.4375 27.253906 -2.078125 L 27.175781 -2 C 26.855469 -1.519531 26.855469 -1.117188 27.09375 -0.640625 C 27.253906 -0.160156 27.652344 0 28.214844 0 L 45.957031 0 C 46.4375 0 46.757812 -0.160156 46.996094 -0.640625 C 47.234375 -1.117188 47.234375 -1.519531 46.996094 -2 C 45.636719 -3.4375 44.996094 -5.035156 44.996094 -6.953125 L 44.996094 -62.023438 C 44.996094 -62.421875 45.15625 -62.820312 45.476562 -63.140625 C 45.796875 -63.460938 46.117188 -63.621094 46.597656 -63.621094 L 57.625 -63.621094 C 59.542969 -63.621094 61.144531 -62.902344 62.5 -61.621094 L 62.582031 -61.621094 C 62.980469 -61.304688 63.378906 -61.304688 63.859375 -61.542969 C 64.339844 -61.703125 64.578125 -62.101562 64.578125 -62.660156 L 64.578125 -80.40625 C 64.578125 -80.882812 64.339844 -81.203125 63.859375 -81.445312 C 63.378906 -81.683594 62.980469 -81.683594 62.582031 -81.445312 Z M 62.582031 -81.445312 "/></g></g></g><g fill="#000000" fill-opacity="1"><g transform="translate(355.595415, 302.750417)"><g><path d="M 69.457031 -2 L 69.296875 -2.078125 C 68.015625 -3.4375 67.457031 -5.035156 67.457031 -6.953125 L 67.457031 -72.492188 C 67.457031 -74.332031 68.015625 -75.929688 69.296875 -77.367188 L 69.457031 -77.449219 C 69.695312 -77.847656 69.695312 -78.246094 69.457031 -78.726562 C 69.214844 -79.207031 68.894531 -79.445312 68.417969 -79.445312 L 50.671875 -79.445312 C 50.191406 -79.445312 49.792969 -79.207031 49.554688 -78.726562 C 49.3125 -78.246094 49.3125 -77.847656 49.632812 -77.449219 L 49.714844 -77.449219 C 50.992188 -76.007812 51.632812 -74.332031 51.632812 -72.574219 L 51.632812 -50.273438 C 51.632812 -49.472656 51.3125 -48.835938 50.832031 -48.355469 C 50.273438 -47.875 49.632812 -47.636719 48.914062 -47.636719 L 30.371094 -47.636719 C 29.574219 -47.636719 28.933594 -47.875 28.453125 -48.355469 C 27.894531 -48.835938 27.652344 -49.472656 27.652344 -50.273438 L 27.652344 -72.652344 C 27.652344 -74.410156 28.292969 -76.007812 29.574219 -77.449219 C 29.8125 -77.847656 29.8125 -78.246094 29.652344 -78.726562 C 29.414062 -79.207031 29.011719 -79.445312 28.535156 -79.445312 L 10.871094 -79.445312 C 10.308594 -79.445312 9.910156 -79.207031 9.75 -78.726562 C 9.511719 -78.246094 9.511719 -77.847656 9.832031 -77.449219 L 9.992188 -77.289062 C 11.191406 -75.929688 11.828125 -74.332031 11.828125 -72.492188 L 11.828125 -7.035156 C 11.828125 -5.113281 11.191406 -3.4375 9.992188 -2.15625 L 9.832031 -2 C 9.511719 -1.519531 9.511719 -1.117188 9.75 -0.640625 C 9.910156 -0.160156 10.308594 0 10.871094 0 L 28.535156 0 C 29.011719 0 29.414062 -0.160156 29.652344 -0.640625 C 29.8125 -1.117188 29.8125 -1.519531 29.574219 -2 C 28.292969 -3.4375 27.652344 -5.035156 27.652344 -6.875 L 27.652344 -29.171875 C 27.652344 -29.890625 27.894531 -30.53125 28.453125 -31.011719 C 28.933594 -31.492188 29.574219 -31.808594 30.371094 -31.808594 L 48.914062 -31.808594 C 49.632812 -31.808594 50.273438 -31.492188 50.832031 -31.011719 C 51.3125 -30.53125 51.632812 -29.890625 51.632812 -29.171875 L 51.632812 -6.875 C 51.632812 -5.035156 50.992188 -3.4375 49.714844 -2.078125 L 49.632812 -2 C 49.3125 -1.519531 49.3125 -1.117188 49.554688 -0.640625 C 49.792969 -0.160156 50.191406 0 50.671875 0 L 68.417969 0 C 68.894531 0 69.214844 -0.160156 69.457031 -0.640625 C 69.695312 -1.117188 69.695312 -1.519531 69.457031 -2 Z M 69.457031 -2 "/></g></g></g><g fill="#000000" fill-opacity="1"><g transform="translate(434.87533, 302.750417)"><g><path d="M 58.1875 -80.003906 C 56.828125 -78.726562 55.226562 -78.167969 53.46875 -78.167969 L 10.871094 -78.167969 C 10.308594 -78.167969 9.910156 -77.925781 9.75 -77.449219 C 9.511719 -76.96875 9.511719 -76.570312 9.832031 -76.167969 L 10.070312 -75.929688 C 11.347656 -74.492188 11.988281 -72.8125 11.988281 -70.894531 L 11.988281 -5.996094 C 11.988281 -5.035156 11.828125 -4.15625 11.507812 -3.277344 C 11.191406 -2.398438 10.710938 -1.597656 10.070312 -0.960938 L 9.832031 -0.71875 C 9.511719 -0.238281 9.511719 0.160156 9.75 0.640625 C 9.910156 1.117188 10.308594 1.277344 10.871094 1.277344 L 53.46875 1.277344 C 55.226562 1.277344 56.828125 1.917969 58.1875 3.117188 C 58.585938 3.515625 59.066406 3.597656 59.542969 3.355469 C 60.023438 3.195312 60.34375 2.796875 60.34375 2.15625 L 60.34375 -15.664062 C 60.34375 -16.144531 60.105469 -16.542969 59.625 -16.785156 C 59.144531 -16.945312 58.664062 -16.863281 58.34375 -16.542969 C 56.90625 -15.1875 55.226562 -14.546875 53.308594 -14.546875 L 29.8125 -14.546875 C 29.253906 -14.546875 28.773438 -14.707031 28.375 -15.105469 C 27.972656 -15.425781 27.8125 -15.90625 27.8125 -16.542969 L 27.8125 -28.535156 C 27.8125 -29.09375 27.972656 -29.574219 28.375 -29.972656 C 28.773438 -30.292969 29.253906 -30.53125 29.8125 -30.53125 L 36.84375 -30.53125 C 38.765625 -30.53125 40.441406 -29.8125 41.882812 -28.535156 C 42.28125 -28.214844 42.679688 -28.214844 43.160156 -28.453125 C 43.640625 -28.691406 43.878906 -29.09375 43.878906 -29.574219 L 43.878906 -47.316406 C 43.878906 -47.796875 43.640625 -48.113281 43.160156 -48.355469 C 42.679688 -48.59375 42.28125 -48.59375 41.882812 -48.355469 C 40.441406 -46.996094 38.765625 -46.355469 36.84375 -46.355469 L 29.8125 -46.355469 C 29.253906 -46.355469 28.773438 -46.515625 28.375 -46.917969 C 27.972656 -47.234375 27.8125 -47.714844 27.8125 -48.355469 L 27.8125 -60.34375 C 27.8125 -60.902344 27.972656 -61.382812 28.375 -61.78125 C 28.773438 -62.101562 29.253906 -62.34375 29.8125 -62.34375 L 53.308594 -62.34375 C 55.226562 -62.34375 56.90625 -61.621094 58.34375 -60.34375 C 58.664062 -59.945312 59.144531 -59.863281 59.625 -60.105469 C 60.105469 -60.265625 60.34375 -60.664062 60.34375 -61.222656 L 60.34375 -79.125 C 60.34375 -79.605469 60.023438 -80.003906 59.542969 -80.246094 C 59.066406 -80.40625 58.585938 -80.324219 58.1875 -80.003906 Z M 58.1875 -80.003906 "/></g></g></g></svg>